<svg width="769" height="503" viewBox="0 0 769 503" fill="none" xmlns="http://www.w3.org/2000/svg">
<g filter="url(#filter0_d_158_2456)">
<rect x="71" y="66" width="517.527" height="361" rx="14.1016" fill="white"/>
<circle cx="151.192" cy="146.192" r="29.426" fill="white"/>
<mask id="mask0_158_2456" style="mask-type:luminance" maskUnits="userSpaceOnUse" x="128" y="121" width="51" height="51">
<path d="M178.937 146.374L153.944 121.382L128.69 146.636L153.682 171.629L178.937 146.374Z" fill="white"/>
</mask>
<g mask="url(#mask0_158_2456)">
<path d="M153.727 164.237C158.45 164.228 162.975 162.345 166.31 159.001C166.513 158.793 166.627 158.512 166.625 158.221C166.623 157.929 166.506 157.65 166.3 157.444C166.094 157.238 165.815 157.122 165.524 157.12C165.232 157.118 164.952 157.231 164.743 157.435C161.82 160.364 157.854 162.014 153.715 162.021C151.683 162.048 149.666 161.668 147.783 160.902C145.901 160.137 144.19 159.002 142.753 157.565C141.316 156.128 140.182 154.418 139.416 152.535C138.651 150.652 138.27 148.635 138.297 146.603C138.309 142.465 139.958 138.501 142.884 135.575C145.81 132.649 149.775 131 153.912 130.988C155.931 130.963 157.934 131.339 159.806 132.095C161.678 132.85 163.381 133.97 164.817 135.388C165.112 135.702 165.273 136.12 165.265 136.551C165.257 136.982 165.081 137.393 164.774 137.696C164.468 137.999 164.055 138.17 163.623 138.173C163.192 138.176 162.777 138.011 162.466 137.712C162.438 137.684 162.408 137.657 162.377 137.632C160.135 135.531 157.168 134.377 154.096 134.412C150.878 134.423 147.795 135.706 145.519 137.982C143.244 140.257 141.961 143.34 141.95 146.558C141.931 148.144 142.229 149.718 142.828 151.187C143.426 152.656 144.312 153.99 145.433 155.112C146.555 156.233 147.889 157.119 149.358 157.717C150.827 158.315 152.401 158.614 153.987 158.595C157.205 158.588 160.29 157.304 162.563 155.025C162.925 154.67 163.213 154.246 163.41 153.779C163.607 153.312 163.71 152.811 163.712 152.304C163.714 151.797 163.616 151.294 163.423 150.825C163.23 150.356 162.946 149.93 162.588 149.572C162.229 149.213 161.803 148.929 161.334 148.736C160.866 148.543 160.363 148.445 159.856 148.448C159.349 148.45 158.848 148.553 158.38 148.75C157.913 148.947 157.49 149.235 157.135 149.597C157.112 149.62 157.092 149.643 157.072 149.666C157.048 149.687 157.024 149.707 157.002 149.729C156.382 150.36 155.589 150.791 154.723 150.97C153.858 151.149 152.958 151.066 152.139 150.733C151.321 150.399 150.619 149.83 150.125 149.098C149.63 148.366 149.364 147.503 149.36 146.619C149.356 145.735 149.615 144.87 150.104 144.133C150.593 143.397 151.29 142.822 152.106 142.482C152.922 142.142 153.82 142.052 154.687 142.224C155.555 142.395 156.351 142.82 156.976 143.445C157.079 143.55 157.201 143.634 157.336 143.691C157.471 143.749 157.616 143.778 157.762 143.779C157.909 143.78 158.054 143.752 158.19 143.696C158.326 143.641 158.449 143.559 158.552 143.455C158.656 143.351 158.738 143.228 158.794 143.092C158.85 142.957 158.878 142.811 158.877 142.665C158.876 142.518 158.846 142.373 158.789 142.238C158.731 142.103 158.648 141.981 158.543 141.879C157.61 140.956 156.425 140.331 155.137 140.081C153.849 139.831 152.516 139.969 151.306 140.476C150.096 140.983 149.064 141.837 148.339 142.93C147.614 144.024 147.229 145.307 147.232 146.619C147.236 147.931 147.628 149.212 148.359 150.302C149.09 151.391 150.128 152.239 151.34 152.74C152.553 153.24 153.887 153.37 155.173 153.113C156.46 152.856 157.642 152.224 158.569 151.296C158.592 151.274 158.612 151.251 158.632 151.227C158.656 151.207 158.679 151.186 158.702 151.164C158.851 151.008 159.03 150.884 159.229 150.798C159.427 150.713 159.64 150.668 159.856 150.665C160.072 150.663 160.286 150.704 160.486 150.786C160.686 150.867 160.867 150.988 161.02 151.141C161.172 151.293 161.293 151.475 161.375 151.675C161.457 151.875 161.497 152.089 161.495 152.305C161.493 152.52 161.448 152.734 161.362 152.932C161.277 153.13 161.152 153.309 160.997 153.459C159.135 155.324 156.61 156.375 153.975 156.379C152.682 156.397 151.398 156.155 150.2 155.668C149.003 155.182 147.914 154.46 147 153.545C146.086 152.631 145.364 151.543 144.877 150.345C144.39 149.147 144.149 147.864 144.166 146.571C144.173 143.936 145.223 141.412 147.086 139.549C148.949 137.686 151.474 136.636 154.109 136.628C155.401 136.612 156.684 136.854 157.882 137.341C159.079 137.828 160.168 138.549 161.083 139.462C161.153 139.532 161.233 139.592 161.319 139.641C162.089 140.206 163.039 140.466 163.988 140.373C164.938 140.28 165.82 139.839 166.464 139.136C167.109 138.433 167.471 137.516 167.482 136.562C167.492 135.608 167.15 134.684 166.521 133.967C166.496 133.936 166.469 133.906 166.441 133.877C166.425 133.862 166.41 133.846 166.394 133.83C166.386 133.823 166.378 133.815 166.371 133.807C166.363 133.8 166.355 133.793 166.347 133.786C164.706 132.17 162.761 130.895 160.625 130.035C158.488 129.175 156.203 128.745 153.9 128.773C149.179 128.788 144.656 130.67 141.318 134.008C137.979 137.347 136.097 141.87 136.082 146.591C136.054 148.916 136.49 151.223 137.367 153.377C138.244 155.531 139.543 157.488 141.187 159.132C142.831 160.776 144.788 162.075 146.942 162.952C149.095 163.828 151.403 164.265 153.728 164.237L153.727 164.237Z" fill="url(#paint0_linear_158_2456)"/>
</g>
<path d="M211.137 153.562C210.097 153.562 209.129 153.384 208.234 153.028C207.353 152.66 206.576 152.147 205.905 151.489C205.247 150.831 204.733 150.067 204.365 149.199C203.996 148.317 203.812 147.369 203.812 146.356C203.812 145.342 203.996 144.401 204.365 143.532C204.733 142.651 205.247 141.887 205.905 141.242C206.563 140.597 207.333 140.097 208.215 139.742C209.11 139.373 210.077 139.189 211.117 139.189C212.222 139.189 213.203 139.367 214.058 139.722C214.927 140.078 215.684 140.565 216.329 141.183L214.256 143.276C213.887 142.881 213.44 142.572 212.913 142.348C212.4 142.124 211.801 142.012 211.117 142.012C210.511 142.012 209.952 142.118 209.439 142.328C208.939 142.526 208.504 142.815 208.136 143.197C207.78 143.579 207.497 144.039 207.287 144.579C207.089 145.118 206.991 145.711 206.991 146.356C206.991 147.014 207.089 147.613 207.287 148.152C207.497 148.692 207.78 149.152 208.136 149.534C208.504 149.916 208.939 150.212 209.439 150.423C209.952 150.633 210.511 150.738 211.117 150.738C211.827 150.738 212.446 150.627 212.973 150.403C213.499 150.179 213.953 149.87 214.335 149.475L216.427 151.568C215.756 152.186 214.986 152.673 214.118 153.028C213.262 153.384 212.268 153.562 211.137 153.562ZM222.246 153.562C221.259 153.562 220.364 153.344 219.561 152.91C218.772 152.463 218.146 151.857 217.686 151.094C217.225 150.33 216.995 149.475 216.995 148.527C216.995 147.58 217.225 146.731 217.686 145.981C218.146 145.23 218.772 144.638 219.561 144.204C220.351 143.756 221.246 143.532 222.246 143.532C223.246 143.532 224.141 143.75 224.931 144.184C225.721 144.618 226.346 145.217 226.807 145.981C227.267 146.731 227.498 147.58 227.498 148.527C227.498 149.475 227.267 150.33 226.807 151.094C226.346 151.857 225.721 152.463 224.931 152.91C224.141 153.344 223.246 153.562 222.246 153.562ZM222.246 150.817C222.68 150.817 223.062 150.725 223.391 150.541C223.72 150.344 223.97 150.074 224.141 149.732C224.326 149.376 224.418 148.975 224.418 148.527C224.418 148.08 224.326 147.692 224.141 147.362C223.957 147.02 223.7 146.757 223.371 146.573C223.056 146.375 222.68 146.277 222.246 146.277C221.825 146.277 221.45 146.375 221.121 146.573C220.792 146.757 220.535 147.02 220.351 147.362C220.167 147.705 220.074 148.1 220.074 148.547C220.074 148.981 220.167 149.376 220.351 149.732C220.535 150.074 220.792 150.344 221.121 150.541C221.45 150.725 221.825 150.817 222.246 150.817ZM229.001 153.344V143.75H232.022V153.344H229.001ZM235.141 153.344V147.738C235.141 147.251 234.99 146.876 234.687 146.612C234.398 146.336 234.036 146.198 233.601 146.198C233.299 146.198 233.029 146.263 232.792 146.395C232.555 146.514 232.364 146.685 232.219 146.908C232.088 147.132 232.022 147.409 232.022 147.738L230.857 147.224C230.857 146.461 231.022 145.809 231.351 145.27C231.68 144.717 232.127 144.296 232.693 144.006C233.259 143.704 233.897 143.552 234.608 143.552C235.279 143.552 235.878 143.704 236.405 144.006C236.944 144.309 237.372 144.73 237.688 145.27C238.004 145.809 238.162 146.454 238.162 147.205V153.344H235.141ZM241.281 153.344V147.738C241.281 147.251 241.13 146.876 240.827 146.612C240.537 146.336 240.175 146.198 239.741 146.198C239.438 146.198 239.169 146.263 238.932 146.395C238.695 146.514 238.504 146.685 238.359 146.908C238.228 147.132 238.162 147.409 238.162 147.738L236.424 147.501C236.451 146.685 236.642 145.987 236.997 145.408C237.365 144.816 237.846 144.362 238.438 144.046C239.044 143.717 239.721 143.552 240.472 143.552C241.209 143.552 241.86 143.71 242.426 144.026C243.005 144.329 243.459 144.77 243.788 145.349C244.13 145.915 244.302 146.599 244.302 147.402V153.344H241.281ZM251.765 153.542C251.12 153.542 250.528 153.417 249.988 153.167C249.449 152.917 249.008 152.574 248.665 152.14C248.323 151.693 248.126 151.186 248.073 150.62V146.573C248.126 146.007 248.323 145.494 248.665 145.033C249.008 144.572 249.449 144.21 249.988 143.947C250.528 143.684 251.12 143.552 251.765 143.552C252.673 143.552 253.476 143.769 254.174 144.204C254.884 144.638 255.437 145.23 255.832 145.981C256.24 146.731 256.444 147.586 256.444 148.547C256.444 149.508 256.24 150.363 255.832 151.113C255.437 151.864 254.884 152.456 254.174 152.89C253.476 153.325 252.673 153.542 251.765 153.542ZM251.212 150.817C251.647 150.817 252.022 150.719 252.338 150.521C252.667 150.324 252.923 150.054 253.107 149.712C253.292 149.37 253.384 148.981 253.384 148.547C253.384 148.1 253.292 147.705 253.107 147.362C252.923 147.02 252.667 146.757 252.338 146.573C252.022 146.375 251.653 146.277 251.232 146.277C250.811 146.277 250.436 146.375 250.107 146.573C249.791 146.757 249.541 147.02 249.356 147.362C249.172 147.705 249.08 148.1 249.08 148.547C249.08 148.981 249.166 149.37 249.337 149.712C249.521 150.054 249.778 150.324 250.107 150.521C250.436 150.719 250.804 150.817 251.212 150.817ZM246.237 157.392V143.75H249.258V146.217L248.764 148.547L249.218 150.877V157.392H246.237ZM262.598 153.562C261.611 153.562 260.716 153.344 259.913 152.91C259.123 152.463 258.498 151.857 258.038 151.094C257.577 150.33 257.347 149.475 257.347 148.527C257.347 147.58 257.577 146.731 258.038 145.981C258.498 145.23 259.123 144.638 259.913 144.204C260.703 143.756 261.598 143.532 262.598 143.532C263.598 143.532 264.493 143.75 265.283 144.184C266.073 144.618 266.698 145.217 267.159 145.981C267.619 146.731 267.85 147.58 267.85 148.527C267.85 149.475 267.619 150.33 267.159 151.094C266.698 151.857 266.073 152.463 265.283 152.91C264.493 153.344 263.598 153.562 262.598 153.562ZM262.598 150.817C263.032 150.817 263.414 150.725 263.743 150.541C264.072 150.344 264.322 150.074 264.493 149.732C264.678 149.376 264.77 148.975 264.77 148.527C264.77 148.08 264.678 147.692 264.493 147.362C264.309 147.02 264.052 146.757 263.723 146.573C263.408 146.375 263.032 146.277 262.598 146.277C262.177 146.277 261.802 146.375 261.473 146.573C261.144 146.757 260.887 147.02 260.703 147.362C260.519 147.705 260.426 148.1 260.426 148.547C260.426 148.981 260.519 149.376 260.703 149.732C260.887 150.074 261.144 150.344 261.473 150.541C261.802 150.725 262.177 150.817 262.598 150.817ZM273.618 153.562C272.736 153.562 271.953 153.384 271.268 153.028C270.597 152.66 270.071 152.16 269.689 151.528C269.307 150.883 269.116 150.146 269.116 149.317V143.75H272.137V149.277C272.137 149.607 272.19 149.889 272.295 150.126C272.413 150.363 272.584 150.548 272.808 150.679C273.032 150.811 273.302 150.877 273.618 150.877C274.065 150.877 274.42 150.738 274.684 150.462C274.947 150.172 275.079 149.778 275.079 149.277V143.75H278.099V149.297C278.099 150.14 277.908 150.883 277.527 151.528C277.145 152.16 276.618 152.66 275.947 153.028C275.276 153.384 274.499 153.562 273.618 153.562ZM286.333 153.344V147.876C286.333 147.376 286.175 146.974 285.859 146.672C285.556 146.356 285.168 146.198 284.694 146.198C284.365 146.198 284.076 146.27 283.826 146.415C283.575 146.546 283.378 146.744 283.233 147.007C283.089 147.257 283.016 147.547 283.016 147.876L281.851 147.303C281.851 146.553 282.016 145.895 282.345 145.329C282.674 144.763 283.128 144.329 283.707 144.026C284.299 143.71 284.964 143.552 285.701 143.552C286.412 143.552 287.037 143.723 287.577 144.066C288.129 144.395 288.564 144.835 288.88 145.388C289.195 145.941 289.353 146.546 289.353 147.205V153.344H286.333ZM279.996 153.344V143.75H283.016V153.344H279.996ZM295.38 153.542C294.472 153.542 293.662 153.325 292.952 152.89C292.254 152.456 291.701 151.864 291.293 151.113C290.899 150.363 290.701 149.508 290.701 148.547C290.701 147.586 290.899 146.731 291.293 145.981C291.701 145.23 292.254 144.638 292.952 144.204C293.662 143.769 294.472 143.552 295.38 143.552C296.038 143.552 296.63 143.677 297.157 143.927C297.696 144.177 298.137 144.526 298.48 144.974C298.835 145.408 299.032 145.908 299.072 146.474V150.521C299.032 151.087 298.841 151.6 298.499 152.061C298.157 152.509 297.716 152.871 297.177 153.147C296.637 153.41 296.038 153.542 295.38 153.542ZM295.913 150.817C296.347 150.817 296.722 150.725 297.038 150.541C297.354 150.344 297.604 150.074 297.789 149.732C297.973 149.389 298.065 148.994 298.065 148.547C298.065 148.1 297.973 147.711 297.789 147.382C297.617 147.04 297.367 146.77 297.038 146.573C296.722 146.375 296.354 146.277 295.933 146.277C295.512 146.277 295.136 146.375 294.807 146.573C294.492 146.77 294.235 147.04 294.038 147.382C293.853 147.724 293.761 148.113 293.761 148.547C293.761 148.981 293.853 149.37 294.038 149.712C294.222 150.054 294.478 150.324 294.807 150.521C295.136 150.719 295.505 150.817 295.913 150.817ZM300.908 153.344H297.946V150.758L298.401 148.429L297.887 146.099V139.012H300.908V153.344ZM307.07 153.344V139.406H310.17V153.344H307.07ZM309.44 147.876V145.211H316.408V147.876H309.44ZM309.44 142.072V139.406H316.724V142.072H309.44ZM318.439 153.344V143.75H321.459V153.344H318.439ZM319.959 142.427C319.485 142.427 319.09 142.269 318.774 141.953C318.472 141.624 318.32 141.229 318.32 140.769C318.32 140.295 318.472 139.9 318.774 139.584C319.09 139.268 319.485 139.11 319.959 139.11C320.433 139.11 320.821 139.268 321.124 139.584C321.427 139.9 321.578 140.295 321.578 140.769C321.578 141.229 321.427 141.624 321.124 141.953C320.821 142.269 320.433 142.427 319.959 142.427ZM329.924 153.344V147.876C329.924 147.376 329.766 146.974 329.45 146.672C329.147 146.356 328.759 146.198 328.285 146.198C327.956 146.198 327.667 146.27 327.416 146.415C327.166 146.546 326.969 146.744 326.824 147.007C326.679 147.257 326.607 147.547 326.607 147.876L325.442 147.303C325.442 146.553 325.607 145.895 325.936 145.329C326.265 144.763 326.719 144.329 327.298 144.026C327.89 143.71 328.555 143.552 329.292 143.552C330.003 143.552 330.628 143.723 331.167 144.066C331.72 144.395 332.155 144.835 332.47 145.388C332.786 145.941 332.944 146.546 332.944 147.205V153.344H329.924ZM323.586 153.344V143.75H326.607V153.344H323.586ZM338.892 153.542C338.01 153.542 337.22 153.325 336.523 152.89C335.838 152.456 335.292 151.864 334.884 151.113C334.489 150.363 334.292 149.508 334.292 148.547C334.292 147.586 334.489 146.731 334.884 145.981C335.292 145.23 335.838 144.638 336.523 144.204C337.22 143.769 338.01 143.552 338.892 143.552C339.537 143.552 340.116 143.677 340.629 143.927C341.156 144.177 341.583 144.526 341.912 144.974C342.242 145.408 342.426 145.908 342.465 146.474V150.62C342.426 151.186 342.242 151.693 341.912 152.14C341.597 152.574 341.175 152.917 340.649 153.167C340.123 153.417 339.537 153.542 338.892 153.542ZM339.504 150.817C340.149 150.817 340.669 150.607 341.064 150.186C341.458 149.751 341.656 149.205 341.656 148.547C341.656 148.1 341.564 147.705 341.379 147.362C341.208 147.02 340.958 146.757 340.629 146.573C340.313 146.375 339.945 146.277 339.524 146.277C339.103 146.277 338.727 146.375 338.398 146.573C338.082 146.757 337.826 147.02 337.628 147.362C337.444 147.705 337.352 148.1 337.352 148.547C337.352 148.981 337.444 149.37 337.628 149.712C337.813 150.054 338.069 150.324 338.398 150.521C338.727 150.719 339.096 150.817 339.504 150.817ZM341.537 153.344V150.758L341.991 148.429L341.537 146.099V143.75H344.499V153.344H341.537ZM352.963 153.344V147.876C352.963 147.376 352.805 146.974 352.489 146.672C352.186 146.356 351.798 146.198 351.324 146.198C350.995 146.198 350.706 146.27 350.455 146.415C350.205 146.546 350.008 146.744 349.863 147.007C349.718 147.257 349.646 147.547 349.646 147.876L348.481 147.303C348.481 146.553 348.646 145.895 348.975 145.329C349.304 144.763 349.758 144.329 350.337 144.026C350.929 143.71 351.594 143.552 352.331 143.552C353.042 143.552 353.667 143.723 354.206 144.066C354.759 144.395 355.194 144.835 355.509 145.388C355.825 145.941 355.983 146.546 355.983 147.205V153.344H352.963ZM346.625 153.344V143.75H349.646V153.344H346.625ZM362.563 153.562C361.576 153.562 360.681 153.344 359.878 152.91C359.075 152.476 358.443 151.877 357.982 151.113C357.522 150.35 357.291 149.495 357.291 148.547C357.291 147.586 357.522 146.731 357.982 145.981C358.456 145.217 359.095 144.618 359.897 144.184C360.7 143.75 361.602 143.532 362.602 143.532C363.352 143.532 364.037 143.664 364.655 143.927C365.287 144.177 365.846 144.559 366.333 145.072L364.399 147.007C364.175 146.757 363.912 146.573 363.609 146.454C363.319 146.336 362.984 146.277 362.602 146.277C362.168 146.277 361.78 146.375 361.437 146.573C361.108 146.757 360.845 147.02 360.648 147.362C360.463 147.692 360.371 148.08 360.371 148.527C360.371 148.975 360.463 149.37 360.648 149.712C360.845 150.054 361.115 150.324 361.457 150.521C361.799 150.719 362.181 150.817 362.602 150.817C362.997 150.817 363.346 150.752 363.648 150.62C363.964 150.475 364.234 150.278 364.458 150.028L366.373 151.962C365.873 152.489 365.307 152.89 364.675 153.167C364.043 153.43 363.339 153.562 362.563 153.562ZM372.224 153.562C371.184 153.562 370.256 153.351 369.44 152.93C368.637 152.495 368.006 151.897 367.545 151.133C367.084 150.37 366.854 149.508 366.854 148.547C366.854 147.586 367.078 146.731 367.525 145.981C367.986 145.217 368.605 144.618 369.381 144.184C370.158 143.75 371.033 143.532 372.007 143.532C372.954 143.532 373.79 143.736 374.514 144.145C375.238 144.553 375.804 145.118 376.212 145.842C376.633 146.566 376.844 147.395 376.844 148.33C376.844 148.501 376.83 148.685 376.804 148.883C376.791 149.067 376.758 149.284 376.705 149.534L368.433 149.554V147.481L375.422 147.461L374.119 148.33C374.106 147.777 374.021 147.323 373.863 146.968C373.705 146.599 373.468 146.323 373.152 146.138C372.849 145.941 372.474 145.842 372.027 145.842C371.553 145.842 371.138 145.954 370.783 146.178C370.441 146.389 370.171 146.691 369.973 147.086C369.789 147.481 369.697 147.961 369.697 148.527C369.697 149.093 369.796 149.58 369.993 149.988C370.204 150.383 370.493 150.692 370.862 150.916C371.243 151.127 371.691 151.232 372.204 151.232C372.678 151.232 373.106 151.153 373.487 150.995C373.869 150.824 374.205 150.574 374.494 150.245L376.153 151.903C375.679 152.456 375.106 152.871 374.435 153.147C373.764 153.423 373.027 153.562 372.224 153.562ZM384.707 148.271V145.862H387.707C388.089 145.862 388.438 145.783 388.754 145.625C389.07 145.467 389.32 145.237 389.504 144.934C389.688 144.631 389.78 144.263 389.78 143.829C389.78 143.407 389.688 143.046 389.504 142.743C389.32 142.44 389.07 142.21 388.754 142.052C388.438 141.894 388.089 141.815 387.707 141.815H384.707V139.406H388.161C389.043 139.406 389.84 139.584 390.55 139.939C391.261 140.295 391.82 140.808 392.228 141.479C392.65 142.137 392.86 142.92 392.86 143.829C392.86 144.737 392.65 145.526 392.228 146.198C391.82 146.856 391.261 147.369 390.55 147.738C389.84 148.093 389.043 148.271 388.161 148.271H384.707ZM382.338 153.344V139.406H385.437V153.344H382.338ZM398.673 153.562C397.686 153.562 396.791 153.344 395.988 152.91C395.198 152.463 394.573 151.857 394.112 151.094C393.652 150.33 393.421 149.475 393.421 148.527C393.421 147.58 393.652 146.731 394.112 145.981C394.573 145.23 395.198 144.638 395.988 144.204C396.777 143.756 397.672 143.532 398.673 143.532C399.673 143.532 400.568 143.75 401.358 144.184C402.147 144.618 402.772 145.217 403.233 145.981C403.694 146.731 403.924 147.58 403.924 148.527C403.924 149.475 403.694 150.33 403.233 151.094C402.772 151.857 402.147 152.463 401.358 152.91C400.568 153.344 399.673 153.562 398.673 153.562ZM398.673 150.817C399.107 150.817 399.489 150.725 399.818 150.541C400.147 150.344 400.397 150.074 400.568 149.732C400.752 149.376 400.844 148.975 400.844 148.527C400.844 148.08 400.752 147.692 400.568 147.362C400.384 147.02 400.127 146.757 399.798 146.573C399.482 146.375 399.107 146.277 398.673 146.277C398.251 146.277 397.876 146.375 397.547 146.573C397.218 146.757 396.962 147.02 396.777 147.362C396.593 147.705 396.501 148.1 396.501 148.547C396.501 148.981 396.593 149.376 396.777 149.732C396.962 150.074 397.218 150.344 397.547 150.541C397.876 150.725 398.251 150.817 398.673 150.817ZM410.048 153.562C409.06 153.562 408.165 153.344 407.363 152.91C406.573 152.463 405.948 151.857 405.487 151.094C405.026 150.33 404.796 149.475 404.796 148.527C404.796 147.58 405.026 146.731 405.487 145.981C405.948 145.23 406.573 144.638 407.363 144.204C408.152 143.756 409.047 143.532 410.048 143.532C411.048 143.532 411.943 143.75 412.732 144.184C413.522 144.618 414.147 145.217 414.608 145.981C415.069 146.731 415.299 147.58 415.299 148.527C415.299 149.475 415.069 150.33 414.608 151.094C414.147 151.857 413.522 152.463 412.732 152.91C411.943 153.344 411.048 153.562 410.048 153.562ZM410.048 150.817C410.482 150.817 410.864 150.725 411.193 150.541C411.522 150.344 411.772 150.074 411.943 149.732C412.127 149.376 412.219 148.975 412.219 148.527C412.219 148.08 412.127 147.692 411.943 147.362C411.759 147.02 411.502 146.757 411.173 146.573C410.857 146.375 410.482 146.277 410.048 146.277C409.626 146.277 409.251 146.375 408.922 146.573C408.593 146.757 408.337 147.02 408.152 147.362C407.968 147.705 407.876 148.1 407.876 148.547C407.876 148.981 407.968 149.376 408.152 149.732C408.337 150.074 408.593 150.344 408.922 150.541C409.251 150.725 409.626 150.817 410.048 150.817ZM416.803 153.344V139.012H419.823V153.344H416.803Z" fill="#1E1E20"/>
<path fill-rule="evenodd" clip-rule="evenodd" d="M520.84 134.558C514.415 134.558 509.206 139.767 509.206 146.192C509.206 152.617 514.415 157.826 520.84 157.826C527.265 157.826 532.474 152.617 532.474 146.192C532.474 139.767 527.265 134.558 520.84 134.558ZM507.091 146.192C507.091 138.599 513.247 132.443 520.84 132.443C528.434 132.443 534.589 138.599 534.589 146.192C534.589 153.785 528.434 159.941 520.84 159.941C513.247 159.941 507.091 153.785 507.091 146.192Z" fill="#ACACB0" fill-opacity="0.8"/>
<circle cx="151.192" cy="247.723" r="29.426" fill="white"/>
<mask id="mask1_158_2456" style="mask-type:luminance" maskUnits="userSpaceOnUse" x="133" y="229" width="37" height="37">
<path d="M169.078 229.836H133.306V265.609H169.078V229.836Z" fill="white"/>
</mask>
<g mask="url(#mask1_158_2456)">
<path d="M151.195 265.609H155.521V258.467C155.32 258.451 155.108 258.43 154.904 258.405C154.564 258.373 154.224 258.326 153.889 258.268C153.701 258.242 153.518 258.211 153.334 258.174C153.214 258.148 153.093 258.127 152.973 258.101C152.748 258.059 152.523 258.006 152.298 257.949C151.573 257.777 150.859 257.564 150.158 257.311C149.897 257.217 149.635 257.118 149.373 257.013C149.206 256.945 149.038 256.872 148.869 256.799C148.183 256.501 147.514 256.165 146.865 255.794V255.878C146.254 255.551 145.682 255.156 145.159 254.701C145.154 254.701 145.149 254.695 145.144 254.69C144.678 254.361 144.228 254.01 143.788 253.644C143.36 253.282 142.946 252.906 142.548 252.508C142.346 252.309 142.145 252.105 141.957 251.896C141.946 251.89 141.937 251.881 141.931 251.87C141.742 251.668 141.565 251.472 141.392 251.265C141.015 250.835 140.665 250.396 140.333 249.936C140.155 249.695 139.987 249.449 139.82 249.197C139.689 249.004 139.568 248.815 139.448 248.617C139.443 248.612 139.443 248.607 139.438 248.601C139.317 248.413 139.202 248.219 139.092 248.02C138.805 247.513 138.533 246.989 138.285 246.456C138.181 246.231 138.076 246.006 137.982 245.775C137.789 245.315 137.611 244.85 137.454 244.379C137.396 244.211 137.344 244.044 137.292 243.874C137.187 243.54 137.09 243.2 137.004 242.859C136.972 242.739 136.941 242.613 136.915 242.493C136.857 242.268 136.81 242.048 136.763 241.823C136.716 241.578 136.669 241.331 136.632 241.086C136.585 240.814 136.543 240.536 136.512 240.264C136.481 240.034 136.462 239.81 136.439 239.584C136.428 239.49 136.423 239.401 136.418 239.307C136.41 239.256 136.405 239.206 136.402 239.155C136.392 239.03 136.387 238.903 136.381 238.778C136.36 238.438 136.35 238.093 136.35 237.742C134.988 239.762 134.055 242.038 133.606 244.431C133.157 246.825 133.202 249.285 133.739 251.66C133.744 251.67 133.744 251.686 133.749 251.696C134.489 254.918 136.106 257.873 138.42 260.234C140.734 262.595 143.655 264.271 146.862 265.075C148.278 265.433 149.734 265.612 151.195 265.609Z" fill="url(#paint1_linear_158_2456)"/>
<path d="M155.521 258.467V249.688C155.528 249.116 155.42 248.548 155.206 248.018C154.991 247.487 154.673 247.005 154.271 246.598C153.868 246.191 153.389 245.868 152.861 245.648C152.333 245.427 151.767 245.314 151.195 245.314C150.622 245.314 150.056 245.427 149.528 245.648C149 245.868 148.521 246.191 148.118 246.598C147.716 247.005 147.398 247.487 147.184 248.018C146.969 248.548 146.862 249.116 146.868 249.688V255.793C149.52 257.311 152.475 258.224 155.521 258.467Z" fill="url(#paint2_linear_158_2456)"/>
<path d="M145.146 254.69C144.146 253.825 143.344 252.755 142.794 251.552C142.244 250.349 141.959 249.042 141.96 247.72C141.96 247.107 142.02 246.496 142.137 245.894C142.26 245.297 142.44 244.714 142.676 244.152C143.375 242.495 144.54 241.077 146.03 240.07C146.03 240.065 146.03 240.065 146.036 240.065C146.276 239.84 146.527 239.62 146.784 239.409C146.788 239.409 146.791 239.407 146.794 239.404C149.186 237.42 152.026 236.051 155.068 235.415C158.109 234.779 161.26 234.895 164.247 235.754C164.348 235.775 164.448 235.804 164.549 235.838C161.513 232.419 157.282 230.295 152.726 229.902C148.171 229.51 143.638 230.88 140.063 233.729C138.631 234.872 137.38 236.225 136.353 237.742C136.361 242.124 137.754 246.392 140.335 249.934C141.673 251.767 143.298 253.372 145.146 254.69Z" fill="url(#paint3_linear_158_2456)"/>
<path d="M169.079 265.17V257.076L169.077 257.075L169.075 257.074L169.074 257.072L169.074 257.07H169.068C168.932 256.981 168.796 256.898 168.664 256.803C168.345 256.601 168.036 256.385 167.733 256.165C166.973 255.611 166.249 255.008 165.567 254.36C165.436 254.24 165.305 254.114 165.174 253.988C165.154 253.968 165.133 253.941 165.112 253.92C164.923 253.737 164.746 253.554 164.573 253.365C164.384 253.166 164.201 252.961 164.018 252.76C163.872 252.587 163.72 252.409 163.573 252.231C163.479 252.116 163.385 251.996 163.291 251.876C163.212 251.781 163.14 251.682 163.066 251.588C162.956 251.441 162.846 251.295 162.741 251.148C162.705 251.098 162.668 251.047 162.637 251.002C162.501 250.814 162.364 250.62 162.239 250.421C162.221 250.398 162.204 250.373 162.189 250.348C162.048 250.133 161.911 249.918 161.781 249.699C161.655 249.505 161.54 249.312 161.436 249.113C161.388 249.04 161.346 248.961 161.304 248.883C161.195 248.694 161.09 248.506 161.002 248.318C160.991 248.297 160.981 248.281 160.97 248.26C160.85 248.041 160.74 247.815 160.635 247.59C160.635 247.58 160.63 247.575 160.625 247.564C160.547 247.413 160.478 247.261 160.41 247.11C160.426 247.312 160.431 247.518 160.431 247.722V256.517C160.431 257.105 160.491 257.693 160.609 258.269C161.011 260.219 162.073 261.97 163.616 263.227C165.159 264.484 167.088 265.17 169.079 265.17Z" fill="url(#paint4_linear_158_2456)"/>
<path d="M169.078 257.076V247.72C169.077 243.555 167.621 239.522 164.96 236.317C164.83 236.155 164.694 235.993 164.552 235.836C164.47 235.808 164.385 235.785 164.3 235.768C164.288 235.758 164.273 235.752 164.258 235.752H164.248C164.054 235.694 163.856 235.642 163.657 235.589C163.625 235.584 163.589 235.574 163.552 235.564C163.364 235.516 163.17 235.474 162.977 235.432C162.699 235.37 162.422 235.317 162.139 235.271C161.988 235.244 161.836 235.224 161.685 235.197C161.502 235.171 161.313 235.15 161.125 235.129C160.952 235.108 160.78 235.092 160.607 235.079C160.518 235.074 160.429 235.063 160.335 235.058C159.885 235.027 159.43 235.011 158.973 235.011C158.857 235.011 158.742 235.011 158.633 235.016C158.532 235.016 158.439 235.021 158.34 235.027C158.285 235.023 158.231 235.025 158.177 235.032C158.104 235.032 158.031 235.037 157.958 235.042C157.764 235.048 157.571 235.063 157.377 235.079C157.298 235.084 157.22 235.089 157.141 235.1C156.896 235.121 156.655 235.147 156.409 235.184C156.257 235.204 156.1 235.226 155.949 235.251C155.92 235.252 155.891 235.257 155.865 235.268C155.75 235.283 155.629 235.304 155.512 235.325C155.067 235.403 154.622 235.503 154.188 235.618C154.057 235.649 153.926 235.686 153.801 235.723C153.096 235.921 152.402 236.159 151.723 236.434C151.53 236.513 151.341 236.597 151.153 236.686C150.734 236.869 150.326 237.073 149.924 237.292C149.756 237.376 149.594 237.469 149.432 237.564C148.966 237.831 148.511 238.119 148.069 238.427C147.849 238.584 147.63 238.741 147.413 238.903C147.209 239.06 147.005 239.222 146.808 239.385C146.802 239.393 146.795 239.4 146.787 239.405C146.729 239.447 146.677 239.495 146.62 239.542C146.418 239.709 146.222 239.887 146.028 240.065C147.551 239.033 149.348 238.482 151.188 238.485H151.193C152.404 238.485 153.603 238.723 154.722 239.188C155.84 239.652 156.857 240.332 157.712 241.19C159.295 242.771 160.251 244.874 160.401 247.107C160.469 247.259 160.537 247.41 160.616 247.562C160.621 247.572 160.626 247.577 160.626 247.588C160.736 247.813 160.846 248.038 160.961 248.257C160.971 248.279 160.982 248.294 160.993 248.315C161.086 248.504 161.191 248.692 161.295 248.88C161.337 248.959 161.379 249.037 161.427 249.11C161.536 249.312 161.651 249.503 161.772 249.696C161.902 249.916 162.039 250.131 162.18 250.345C162.195 250.371 162.212 250.395 162.23 250.418C162.355 250.612 162.487 250.805 162.628 250.999C162.659 251.046 162.695 251.094 162.732 251.145C162.837 251.292 162.947 251.439 163.057 251.585C163.13 251.679 163.203 251.779 163.282 251.873C163.371 251.993 163.465 252.114 163.564 252.229C163.711 252.407 163.863 252.582 164.009 252.757C164.192 252.959 164.375 253.165 164.564 253.363C164.736 253.551 164.914 253.734 165.103 253.918C165.123 253.939 165.145 253.965 165.165 253.986C165.296 254.111 165.427 254.238 165.558 254.357C166.24 255.006 166.963 255.608 167.724 256.162C168.027 256.387 168.336 256.602 168.655 256.806C168.786 256.895 168.922 256.984 169.059 257.067H169.065C169.063 257.069 169.063 257.071 169.064 257.073C169.064 257.076 169.065 257.077 169.067 257.078C169.069 257.079 169.071 257.08 169.073 257.079C169.075 257.079 169.077 257.077 169.078 257.076Z" fill="url(#paint5_linear_158_2456)"/>
<g style="mix-blend-mode:multiply" opacity="0.1">
<path d="M141.96 247.72C141.96 247.107 142.019 246.496 142.137 245.894C140.866 242.734 140.049 238.752 140.066 233.729C138.633 234.872 137.383 236.225 136.356 237.742C136.364 242.125 137.757 246.392 140.338 249.934C141.675 251.766 143.299 253.372 145.146 254.69C144.146 253.825 143.343 252.755 142.794 251.552C142.244 250.349 141.959 249.042 141.96 247.72Z" fill="black"/>
</g>
<g style="mix-blend-mode:multiply" opacity="0.16">
<path d="M155.521 258.467V257.672C152.27 256.916 149.281 255.3 146.868 252.994V255.794C149.52 257.311 152.475 258.224 155.521 258.467Z" fill="black"/>
</g>
<g style="mix-blend-mode:multiply" opacity="0.1">
<path d="M167.77 241.018C167.084 239.315 166.136 237.73 164.961 236.319C164.83 236.157 164.694 235.995 164.552 235.838C164.47 235.81 164.385 235.787 164.3 235.77C164.288 235.76 164.273 235.754 164.258 235.754H164.248C164.054 235.696 163.856 235.644 163.657 235.591C163.625 235.586 163.589 235.576 163.552 235.566C163.364 235.518 163.17 235.476 162.977 235.435C162.699 235.372 162.422 235.32 162.139 235.273C161.988 235.246 161.836 235.226 161.685 235.199C161.502 235.173 161.313 235.153 161.125 235.131C160.952 235.11 160.78 235.094 160.607 235.081C160.518 235.076 160.429 235.065 160.335 235.06C159.885 235.029 159.43 235.013 158.973 235.013C158.857 235.013 158.742 235.013 158.633 235.018C158.532 235.018 158.439 235.023 158.34 235.029C158.285 235.025 158.231 235.027 158.177 235.034C158.104 235.034 158.031 235.039 157.958 235.045C157.764 235.05 157.571 235.065 157.377 235.081C157.298 235.086 157.22 235.091 157.141 235.102C156.896 235.123 156.655 235.149 156.409 235.186C156.257 235.207 156.1 235.228 155.949 235.253C155.92 235.254 155.891 235.259 155.865 235.27C155.75 235.285 155.629 235.306 155.512 235.327C155.067 235.405 154.622 235.505 154.188 235.62C154.057 235.652 153.926 235.688 153.801 235.725C153.096 235.923 152.402 236.161 151.723 236.436C151.53 236.515 151.341 236.599 151.153 236.688C150.734 236.872 150.326 237.075 149.924 237.294C149.756 237.378 149.594 237.471 149.432 237.566C148.966 237.833 148.511 238.121 148.069 238.429C147.849 238.586 147.63 238.743 147.413 238.905C147.209 239.062 147.005 239.224 146.808 239.387C146.802 239.395 146.795 239.402 146.787 239.407C146.729 239.449 146.677 239.497 146.62 239.544C146.418 239.711 146.222 239.889 146.028 240.067C147.551 239.035 149.348 238.484 151.188 238.487H151.193C155.085 237.578 160.741 237.471 167.475 240.878C167.577 240.918 167.678 240.966 167.77 241.018Z" fill="black"/>
</g>
<g style="mix-blend-mode:multiply" opacity="0.1">
<path d="M169.079 262.397V257.076L169.077 257.075L169.075 257.074L169.074 257.072L169.074 257.07H169.068C168.932 256.981 168.796 256.898 168.664 256.803C168.345 256.601 168.036 256.385 167.733 256.165C166.973 255.611 166.249 255.008 165.567 254.36C165.436 254.24 165.305 254.114 165.174 253.988C165.154 253.968 165.133 253.941 165.112 253.92C164.923 253.737 164.746 253.554 164.573 253.365C164.384 253.166 164.201 252.961 164.018 252.76C163.872 252.587 163.72 252.409 163.573 252.231C163.479 252.116 163.385 251.996 163.291 251.876C163.212 251.781 163.14 251.682 163.066 251.588C162.956 251.441 162.846 251.295 162.741 251.148C162.705 251.098 162.668 251.047 162.637 251.002C162.501 250.814 162.364 250.62 162.239 250.421C162.221 250.398 162.204 250.373 162.189 250.348C162.048 250.133 161.911 249.918 161.781 249.699C161.655 249.505 161.54 249.312 161.436 249.113C161.388 249.04 161.346 248.961 161.304 248.883C161.195 248.694 161.09 248.506 161.002 248.318C160.991 248.297 160.981 248.281 160.97 248.26C160.85 248.041 160.74 247.815 160.635 247.59C160.635 247.58 160.63 247.575 160.625 247.564C160.547 247.413 160.478 247.261 160.41 247.11C160.426 247.312 160.431 247.518 160.431 247.722V250.038C162.226 254.624 165.054 258.734 168.693 262.051C168.817 262.168 168.948 262.282 169.079 262.397Z" fill="black"/>
</g>
<g style="mix-blend-mode:screen" opacity="0.6">
<path d="M143.791 253.64C141.653 251.843 139.897 249.635 138.629 247.146C137.361 244.657 136.606 241.939 136.408 239.153C136.403 239.231 136.393 239.477 136.382 239.848C136.375 240.128 136.382 240.407 136.403 240.685C136.414 241.048 136.446 241.409 136.497 241.768C136.518 241.97 136.548 242.172 136.576 242.386C136.618 242.595 136.66 242.815 136.702 243.042C136.785 243.492 136.916 243.958 137.052 244.439C137.214 244.91 137.345 245.412 137.559 245.893C137.753 246.385 137.983 246.867 138.215 247.348C138.477 247.819 138.723 248.295 139.01 248.735C139.282 249.185 139.596 249.598 139.889 250.001C140.198 250.399 140.507 250.77 140.815 251.105C141.101 251.425 141.403 251.731 141.72 252.02C142.008 252.298 142.285 252.533 142.542 252.737C142.755 252.916 142.977 253.084 143.207 253.239C143.535 253.476 143.744 253.612 143.791 253.64Z" fill="white"/>
</g>
<g style="mix-blend-mode:screen" opacity="0.6">
<path d="M169.068 257.072H169.074C169.042 257.04 168.901 256.904 168.665 256.695C168.404 256.46 168.027 256.119 167.577 255.716C167.357 255.507 167.123 255.287 166.871 255.052C166.618 254.816 166.374 254.555 166.102 254.304C165.579 253.77 165.029 253.2 164.506 252.609C163.972 252.017 163.475 251.398 163.009 250.825C162.789 250.522 162.555 250.249 162.353 249.967C162.152 249.685 161.956 249.428 161.778 249.187C161.422 248.7 161.134 248.292 160.93 247.994C160.779 247.775 160.669 247.628 160.621 247.565C162.472 251.475 165.403 254.774 169.068 257.072Z" fill="white"/>
</g>
<g style="mix-blend-mode:screen" opacity="0.6">
<path d="M158.975 235.011C160.759 235.008 162.534 235.258 164.247 235.754H164.268C164.268 235.754 164.001 235.634 163.514 235.461C162.844 235.222 162.157 235.036 161.458 234.906C160.463 234.712 159.452 234.615 158.439 234.618C157.868 234.614 157.296 234.64 156.728 234.696C156.147 234.759 155.556 234.843 154.975 234.963C154.394 235.083 153.819 235.241 153.26 235.417C152.981 235.499 152.707 235.595 152.438 235.705C152.171 235.806 151.909 235.914 151.653 236.03C151.163 236.24 150.686 236.48 150.225 236.746C149.806 236.976 149.401 237.228 149.011 237.503C148.678 237.729 148.356 237.972 148.048 238.23C147.765 238.45 147.54 238.67 147.347 238.836C147.017 239.16 146.824 239.365 146.792 239.401C150.214 236.557 154.526 235.003 158.975 235.011Z" fill="white"/>
</g>
<g style="mix-blend-mode:multiply" opacity="0.3">
<path d="M169.079 265.17V247.72C169.078 243.555 167.621 239.522 164.961 236.317C165.322 236.809 165.662 237.306 165.981 237.824C166.306 238.35 166.603 238.893 166.871 239.451C167.101 239.917 167.299 240.393 167.483 240.874C167.519 240.964 167.551 241.057 167.588 241.152C167.803 241.728 167.988 242.314 168.143 242.91C168.299 243.502 168.425 244.103 168.519 244.709C168.603 245.315 168.67 245.923 168.697 246.53C168.724 247.137 168.718 247.744 168.713 248.372L168.692 250.239L168.666 253.97V257.7C168.666 259.15 168.675 260.599 168.692 262.048C168.697 262.969 168.713 263.89 168.723 264.805L168.37 264.8L167.664 264.722L166.971 264.583L166.286 264.39L165.616 264.134L164.973 263.82L164.355 263.454L163.77 263.035L163.22 262.574L162.702 262.07L162.226 261.525L161.797 260.94L161.42 260.311L161.095 259.655L160.823 258.975L160.609 258.269C161.011 260.218 162.073 261.969 163.616 263.227C165.159 264.484 167.088 265.17 169.079 265.17Z" fill="black"/>
</g>
<g style="mix-blend-mode:multiply" opacity="0.3">
<path d="M151.195 265.609H155.522V259.472C155.454 260.492 155.417 261.518 155.37 262.538C155.328 263.474 155.297 264.405 155.269 265.342L151.962 265.259C151.366 265.248 150.785 265.254 150.21 265.208C149.631 265.167 149.055 265.097 148.483 264.999C147.913 264.909 147.349 264.787 146.793 264.632C146.228 264.483 145.672 264.303 145.128 264.094C144.589 263.91 144.06 263.654 143.532 263.424C143.024 263.147 142.496 262.906 142.015 262.581C141.51 262.294 141.046 261.948 140.57 261.613C140.335 261.446 140.116 261.252 139.89 261.074C139.659 260.897 139.439 260.707 139.231 260.504C139.022 260.305 138.802 260.112 138.598 259.908L137.992 259.275C137.79 259.073 137.615 258.835 137.422 258.615C137.239 258.391 137.045 258.176 136.878 257.935L136.36 257.229L135.889 256.491C135.722 256.245 135.586 255.986 135.444 255.734C135.302 255.482 135.146 255.226 135.025 254.96C134.773 254.431 134.518 253.9 134.319 253.342C134.094 252.809 133.943 252.249 133.754 251.7C134.494 254.922 136.11 257.876 138.424 260.237C140.738 262.598 143.66 264.274 146.866 265.078C148.282 265.434 149.736 265.613 151.195 265.609Z" fill="black"/>
</g>
</g>
<path d="M203.477 254.875L209.004 240.937H211.808L217.276 254.875H213.999L209.814 243.306H210.939L206.695 254.875H203.477ZM206.616 252.348V249.821H214.216V252.348H206.616ZM222.135 255.073C221.254 255.073 220.464 254.856 219.766 254.421C219.082 253.987 218.536 253.395 218.128 252.644C217.733 251.894 217.535 251.039 217.535 250.078C217.535 249.117 217.733 248.262 218.128 247.511C218.536 246.761 219.082 246.169 219.766 245.735C220.464 245.3 221.254 245.083 222.135 245.083C222.78 245.083 223.359 245.208 223.873 245.458C224.399 245.708 224.827 246.057 225.156 246.505C225.485 246.939 225.669 247.439 225.709 248.005V252.151C225.669 252.717 225.485 253.224 225.156 253.671C224.84 254.105 224.419 254.448 223.892 254.698C223.366 254.948 222.78 255.073 222.135 255.073ZM222.747 252.348C223.392 252.348 223.912 252.138 224.307 251.717C224.702 251.282 224.899 250.736 224.899 250.078C224.899 249.63 224.807 249.236 224.623 248.893C224.452 248.551 224.202 248.288 223.873 248.104C223.557 247.906 223.188 247.808 222.767 247.808C222.346 247.808 221.971 247.906 221.642 248.104C221.326 248.288 221.069 248.551 220.872 248.893C220.688 249.236 220.595 249.63 220.595 250.078C220.595 250.512 220.688 250.901 220.872 251.243C221.056 251.585 221.313 251.855 221.642 252.052C221.971 252.25 222.339 252.348 222.747 252.348ZM224.781 254.875V252.289L225.235 249.96L224.781 247.63V245.281H227.742V254.875H224.781ZM232.889 254.875L228.823 245.281H232.08L234.844 253.276H233.423L236.186 245.281H239.385L235.318 254.856L232.889 254.875ZM244.941 255.092C243.901 255.092 242.973 254.882 242.157 254.461C241.354 254.026 240.723 253.428 240.262 252.664C239.801 251.901 239.571 251.039 239.571 250.078C239.571 249.117 239.795 248.262 240.242 247.511C240.703 246.748 241.321 246.149 242.098 245.715C242.875 245.281 243.75 245.063 244.724 245.063C245.671 245.063 246.507 245.267 247.231 245.675C247.955 246.083 248.521 246.649 248.929 247.373C249.35 248.097 249.561 248.926 249.561 249.861C249.561 250.032 249.547 250.216 249.521 250.414C249.508 250.598 249.475 250.815 249.422 251.065L241.15 251.085V249.012L248.139 248.992L246.836 249.861C246.823 249.308 246.737 248.854 246.579 248.499C246.422 248.13 246.185 247.854 245.869 247.669C245.566 247.472 245.191 247.373 244.743 247.373C244.27 247.373 243.855 247.485 243.5 247.709C243.157 247.919 242.888 248.222 242.69 248.617C242.506 249.012 242.414 249.492 242.414 250.058C242.414 250.624 242.513 251.111 242.71 251.519C242.921 251.914 243.21 252.223 243.579 252.447C243.96 252.658 244.408 252.763 244.921 252.763C245.395 252.763 245.823 252.684 246.204 252.526C246.586 252.355 246.922 252.105 247.211 251.776L248.87 253.434C248.396 253.987 247.823 254.401 247.152 254.678C246.481 254.954 245.744 255.092 244.941 255.092ZM257.423 249.802V247.393H260.424C260.806 247.393 261.155 247.314 261.471 247.156C261.786 246.998 262.037 246.768 262.221 246.465C262.405 246.162 262.497 245.794 262.497 245.36C262.497 244.938 262.405 244.576 262.221 244.274C262.037 243.971 261.786 243.741 261.471 243.583C261.155 243.425 260.806 243.346 260.424 243.346H257.423V240.937H260.878C261.76 240.937 262.556 241.115 263.267 241.47C263.978 241.826 264.537 242.339 264.945 243.01C265.366 243.668 265.577 244.451 265.577 245.36C265.577 246.268 265.366 247.057 264.945 247.729C264.537 248.387 263.978 248.9 263.267 249.269C262.556 249.624 261.76 249.802 260.878 249.802H257.423ZM255.054 254.875V240.937H258.154V254.875H255.054ZM271.39 255.092C270.402 255.092 269.507 254.875 268.705 254.441C267.915 253.993 267.29 253.388 266.829 252.625C266.368 251.861 266.138 251.006 266.138 250.058C266.138 249.111 266.368 248.262 266.829 247.511C267.29 246.761 267.915 246.169 268.705 245.735C269.494 245.287 270.389 245.063 271.39 245.063C272.39 245.063 273.285 245.281 274.074 245.715C274.864 246.149 275.489 246.748 275.95 247.511C276.411 248.262 276.641 249.111 276.641 250.058C276.641 251.006 276.411 251.861 275.95 252.625C275.489 253.388 274.864 253.993 274.074 254.441C273.285 254.875 272.39 255.092 271.39 255.092ZM271.39 252.348C271.824 252.348 272.206 252.256 272.535 252.072C272.864 251.874 273.114 251.605 273.285 251.262C273.469 250.907 273.561 250.506 273.561 250.058C273.561 249.611 273.469 249.222 273.285 248.893C273.101 248.551 272.844 248.288 272.515 248.104C272.199 247.906 271.824 247.808 271.39 247.808C270.968 247.808 270.593 247.906 270.264 248.104C269.935 248.288 269.679 248.551 269.494 248.893C269.31 249.236 269.218 249.63 269.218 250.078C269.218 250.512 269.31 250.907 269.494 251.262C269.679 251.605 269.935 251.874 270.264 252.072C270.593 252.256 270.968 252.348 271.39 252.348ZM282.764 255.092C281.777 255.092 280.882 254.875 280.079 254.441C279.29 253.993 278.665 253.388 278.204 252.625C277.743 251.861 277.513 251.006 277.513 250.058C277.513 249.111 277.743 248.262 278.204 247.511C278.665 246.761 279.29 246.169 280.079 245.735C280.869 245.287 281.764 245.063 282.764 245.063C283.765 245.063 284.66 245.281 285.449 245.715C286.239 246.149 286.864 246.748 287.325 247.511C287.786 248.262 288.016 249.111 288.016 250.058C288.016 251.006 287.786 251.861 287.325 252.625C286.864 253.388 286.239 253.993 285.449 254.441C284.66 254.875 283.765 255.092 282.764 255.092ZM282.764 252.348C283.199 252.348 283.58 252.256 283.909 252.072C284.239 251.874 284.489 251.605 284.66 251.262C284.844 250.907 284.936 250.506 284.936 250.058C284.936 249.611 284.844 249.222 284.66 248.893C284.475 248.551 284.219 248.288 283.89 248.104C283.574 247.906 283.199 247.808 282.764 247.808C282.343 247.808 281.968 247.906 281.639 248.104C281.31 248.288 281.053 248.551 280.869 248.893C280.685 249.236 280.593 249.63 280.593 250.078C280.593 250.512 280.685 250.907 280.869 251.262C281.053 251.605 281.31 251.874 281.639 252.072C281.968 252.256 282.343 252.348 282.764 252.348ZM289.52 254.875V240.542H292.54V254.875H289.52Z" fill="#1E1E20"/>
<path fill-rule="evenodd" clip-rule="evenodd" d="M520.84 236.089C514.415 236.089 509.206 241.297 509.206 247.722C509.206 254.148 514.415 259.356 520.84 259.356C527.265 259.356 532.474 254.148 532.474 247.722C532.474 241.297 527.265 236.089 520.84 236.089ZM507.091 247.722C507.091 240.129 513.247 233.973 520.84 233.973C528.434 233.973 534.589 240.129 534.589 247.722C534.589 255.316 528.434 261.471 520.84 261.471C513.247 261.471 507.091 255.316 507.091 247.722Z" fill="#ACACB0" fill-opacity="0.8"/>
<rect x="99.2035" y="297.265" width="461.121" height="103.977" rx="16.9219" fill="#F6F6F6"/>
<circle cx="151.192" cy="349.254" r="29.426" fill="white"/>
<mask id="mask2_158_2456" style="mask-type:luminance" maskUnits="userSpaceOnUse" x="132" y="335" width="39" height="27">
<path d="M170.232 335.983H132.152V361.725H170.232V335.983Z" fill="white"/>
</mask>
<g mask="url(#mask2_158_2456)">
<path d="M170.11 359.882V361.725H146.871C143.528 361.725 140.285 360.587 137.674 358.5C135.064 356.412 133.241 353.499 132.505 350.238C132.49 350.169 132.474 350.108 132.467 350.058C132.459 350.019 132.451 349.981 132.447 349.943H132.444V349.939C132.447 349.935 132.444 349.935 132.444 349.935V349.927C132.439 349.918 132.436 349.907 132.436 349.896C132.434 349.895 132.433 349.893 132.433 349.891C132.432 349.889 132.432 349.887 132.432 349.885C132.319 349.312 132.24 348.732 132.194 348.15C132.167 347.773 132.152 347.389 132.152 347.006C132.152 346.825 132.152 346.645 132.163 346.468C132.239 344.854 132.67 343.277 133.426 341.85C133.816 342.811 134.27 343.745 134.785 344.644C136.586 347.81 139.091 350.52 142.107 352.562C142.48 352.886 142.887 353.169 143.32 353.407C143.324 353.411 143.324 353.411 143.328 353.411C143.6 353.563 143.882 353.697 144.172 353.81C145.03 354.156 145.946 354.332 146.871 354.328H162.712V350.704C162.712 350.126 162.644 349.55 162.508 348.988V348.977C162.311 348.174 161.98 347.411 161.529 346.719C161.292 346.352 161.02 346.007 160.719 345.69C163.524 347.692 165.861 350.279 167.568 353.273C168.744 355.335 169.601 357.563 170.11 359.882Z" fill="url(#paint6_linear_158_2456)"/>
<path d="M170.11 350.703V359.882C169.601 357.563 168.744 355.334 167.568 353.271C165.861 350.277 163.525 347.69 160.719 345.689C160.037 344.958 159.212 344.376 158.295 343.979C157.378 343.582 156.389 343.379 155.39 343.381H143.17C142.21 343.382 141.289 343.764 140.61 344.444C139.931 345.123 139.549 346.045 139.55 347.006C139.549 348.061 139.777 349.105 140.218 350.064C140.66 351.023 141.304 351.875 142.107 352.561C139.092 350.518 136.587 347.81 134.786 344.644C134.27 343.745 133.816 342.811 133.426 341.85C134.363 340.078 135.766 338.595 137.483 337.561C139.2 336.528 141.166 335.982 143.17 335.983H155.39C158.66 335.983 161.836 337.071 164.419 339.076C167.001 341.081 168.843 343.888 169.653 347.055C169.659 347.068 169.663 347.081 169.664 347.094C169.961 348.274 170.111 349.486 170.11 350.703Z" fill="url(#paint7_linear_158_2456)"/>
<g style="mix-blend-mode:multiply" opacity="0.15">
<path d="M170.11 359.882V361.725C170.11 361.725 169.791 356.976 162.957 352.753C162.877 352.703 162.796 352.653 162.712 352.603V350.703C162.713 350.125 162.644 349.548 162.508 348.987V348.975C162.311 348.173 161.98 347.41 161.529 346.718C161.292 346.35 161.021 346.006 160.719 345.689C163.525 347.69 165.861 350.277 167.568 353.271C168.744 355.334 169.601 357.563 170.11 359.882Z" fill="black"/>
</g>
<g style="mix-blend-mode:multiply" opacity="0.15">
<path d="M144.172 353.809C144.172 353.809 138.675 353.716 132.194 348.15C132.167 347.773 132.152 347.389 132.152 347.006C132.152 346.825 132.152 346.645 132.163 346.468C132.239 344.854 132.67 343.277 133.426 341.85C133.816 342.811 134.27 343.745 134.785 344.644C136.586 347.81 139.091 350.52 142.107 352.562C142.48 352.886 142.887 353.169 143.32 353.407C143.324 353.411 143.324 353.411 143.328 353.411C143.6 353.563 143.882 353.696 144.172 353.809Z" fill="black"/>
</g>
<g style="mix-blend-mode:multiply" opacity="0.3">
<path d="M132.444 349.936C132.44 349.927 132.437 349.918 132.436 349.908C132.44 349.912 132.44 349.92 132.444 349.928V349.936Z" fill="black"/>
</g>
<g style="mix-blend-mode:multiply" opacity="0.3">
<path d="M168.286 361.725H146.871C143.528 361.725 140.285 360.587 137.674 358.5C135.064 356.412 133.241 353.499 132.505 350.238C132.49 350.169 132.474 350.108 132.467 350.058C132.457 350.02 132.449 349.981 132.443 349.943V349.939L132.447 349.943C132.47 350.016 132.509 350.142 132.562 350.326C132.673 350.751 132.808 351.169 132.966 351.578C133.073 351.843 133.161 352.142 133.311 352.45C133.461 352.757 133.618 353.091 133.791 353.444C133.991 353.782 134.202 354.139 134.428 354.519C134.686 354.872 134.927 355.267 135.231 355.64C135.538 356.035 135.867 356.411 136.217 356.769C136.398 356.953 136.582 357.141 136.766 357.333C136.97 357.506 137.173 357.686 137.381 357.867C137.484 357.955 137.584 358.051 137.692 358.135C137.807 358.216 137.918 358.3 138.029 358.381C138.26 358.546 138.482 358.723 138.724 358.88C139.215 359.2 139.722 359.494 140.245 359.759C140.783 360.033 141.337 360.275 141.903 360.485C142.489 360.683 143.085 360.851 143.688 360.988C144.296 361.122 144.912 361.221 145.531 361.283L146.506 361.326C146.66 361.333 146.848 361.345 146.975 361.341H147.462C148.764 361.345 150.065 361.349 151.348 361.356C152.63 361.364 153.889 361.376 155.11 361.387C157.548 361.414 159.828 361.456 161.779 361.506C163.733 361.548 165.357 361.617 166.497 361.652C167.637 361.7 168.286 361.725 168.286 361.725Z" fill="black"/>
</g>
<g style="mix-blend-mode:overlay" opacity="0.6">
<path d="M163.03 354.623L162.712 354.634C162.078 354.661 161.448 354.665 160.815 354.68C160.182 354.695 159.552 354.699 158.922 354.703C158.293 354.707 157.659 354.715 157.026 354.707C156.392 354.699 155.763 354.699 155.133 354.688C153.87 354.665 152.607 354.63 151.344 354.573C150.081 354.515 148.818 354.446 147.555 354.327H162.712V350.703C162.713 350.125 162.644 349.548 162.508 348.987V348.975C162.654 349.404 162.755 349.846 162.811 350.296C162.865 350.753 162.877 351.194 162.907 351.643C162.927 352.012 162.946 352.384 162.957 352.753C162.984 353.279 163.003 353.801 163.019 354.327L163.03 354.623Z" fill="white"/>
</g>
<g style="mix-blend-mode:screen" opacity="0.4">
<path d="M169.653 347.055C169.603 346.929 169.457 346.537 169.246 345.942C169.077 345.585 168.908 345.144 168.655 344.668C168.524 344.429 168.386 344.176 168.24 343.911C168.094 343.646 167.906 343.389 167.733 343.109C167.548 342.819 167.346 342.54 167.13 342.272C167.023 342.13 166.912 341.988 166.8 341.842C166.677 341.704 166.555 341.565 166.432 341.423C166.309 341.281 166.178 341.139 166.052 340.993C165.91 340.859 165.768 340.725 165.626 340.586C165.483 340.448 165.341 340.31 165.196 340.172C165.042 340.041 164.885 339.911 164.727 339.78C164.57 339.65 164.412 339.512 164.247 339.389C164.082 339.266 163.906 339.147 163.733 339.024C163.395 338.771 163.026 338.563 162.658 338.341C161.908 337.903 161.12 337.533 160.304 337.235C159.894 337.085 159.471 336.97 159.061 336.836C158.638 336.74 158.216 336.64 157.794 336.555C157.371 336.505 156.964 336.433 156.538 336.39C156.116 336.367 155.667 336.333 155.279 336.321C153.597 336.294 152.031 336.252 150.687 336.202C149.344 336.16 148.226 336.091 147.443 336.056C146.66 336.022 146.211 335.983 146.211 335.983H155.39C158.66 335.983 161.836 337.071 164.419 339.076C167.001 341.081 168.843 343.888 169.653 347.055Z" fill="white"/>
</g>
<g style="mix-blend-mode:multiply" opacity="0.3">
<path d="M170.233 360.807L170.11 360.308L170.01 359.905C169.673 358.502 169.205 357.133 168.612 355.816C168.324 355.156 168.002 354.515 167.656 353.885C167.484 353.567 167.299 353.263 167.111 352.952C166.923 352.641 166.731 352.35 166.524 352.054C165.717 350.867 164.802 349.756 163.79 348.737C163.291 348.226 162.758 347.747 162.216 347.282C161.99 347.09 161.763 346.902 161.529 346.718C161.292 346.35 161.021 346.006 160.719 345.689C160.037 344.958 159.212 344.376 158.295 343.979C157.378 343.582 156.389 343.379 155.39 343.381H143.17C142.21 343.382 141.289 343.764 140.61 344.444C139.931 345.123 139.549 346.045 139.55 347.006C139.549 348.061 139.777 349.105 140.218 350.064C140.66 351.023 141.304 351.875 142.107 352.561C142.48 352.884 142.887 353.168 143.32 353.405C142.841 353.257 142.384 353.047 141.961 352.78C140.995 352.104 140.079 351.36 139.22 350.553C138.794 350.15 138.375 349.731 137.98 349.298C137.584 348.864 137.208 348.411 136.847 347.95C136.129 347.024 135.479 346.046 134.905 345.025C134.328 344.007 133.833 342.946 133.426 341.85C133.896 342.915 134.441 343.945 135.058 344.932C135.668 345.918 136.351 346.858 137.101 347.743C137.473 348.188 137.868 348.614 138.268 349.029C138.667 349.443 139.085 349.843 139.515 350.23C139.788 350.476 140.072 350.71 140.356 350.945C140.089 350.519 139.867 350.068 139.692 349.597C139.456 348.981 139.308 348.335 139.25 347.677C139.164 347.006 139.23 346.324 139.442 345.681C139.672 345.027 140.069 344.445 140.594 343.992C141.118 343.54 141.753 343.232 142.433 343.101C142.603 343.067 142.775 343.047 142.948 343.04C143.032 343.036 143.086 343.028 143.201 343.024H143.435L144.38 343.02L146.268 343.013L150.042 342.997L153.816 343.013C154.45 343.02 155.06 343.013 155.717 343.028C156.376 343.058 157.03 343.174 157.659 343.374C158.912 343.768 160.042 344.478 160.942 345.435C161.529 345.861 162.093 346.311 162.642 346.787C163.197 347.268 163.726 347.778 164.228 348.315C165.235 349.384 166.143 350.543 166.938 351.778C167.138 352.081 167.33 352.403 167.514 352.714C167.699 353.025 167.879 353.352 168.044 353.678C168.382 354.327 168.693 354.987 168.969 355.667C169.406 356.765 169.76 357.894 170.029 359.045C170.052 357.936 170.079 356.83 170.11 355.72C170.152 357.106 170.186 358.496 170.213 359.882L170.233 360.807Z" fill="black"/>
</g>
</g>
<path d="M206.616 356.152V353.428H210.07C210.913 353.428 211.65 353.263 212.282 352.934C212.913 352.592 213.4 352.099 213.742 351.454C214.085 350.809 214.256 350.045 214.256 349.164C214.256 348.282 214.078 347.525 213.723 346.893C213.381 346.261 212.894 345.774 212.262 345.432C211.643 345.09 210.913 344.919 210.07 344.919H206.517V342.214H210.11C211.163 342.214 212.13 342.385 213.012 342.728C213.907 343.057 214.684 343.537 215.342 344.169C216.013 344.787 216.526 345.524 216.881 346.38C217.25 347.222 217.434 348.157 217.434 349.183C217.434 350.197 217.25 351.131 216.881 351.987C216.526 352.842 216.019 353.579 215.361 354.198C214.703 354.816 213.927 355.297 213.032 355.639C212.15 355.981 211.189 356.152 210.149 356.152H206.616ZM204.523 356.152V342.214H207.622V356.152H204.523ZM222.092 356.192L218.143 346.558H221.401L223.908 354.198H222.704L225.27 346.558H228.528L224.421 356.192H222.092ZM219.624 360.199L222.506 353.981L224.421 356.192L222.723 360.199H219.624ZM232.045 356.152V353.428H235.5C236.342 353.428 237.079 353.263 237.711 352.934C238.343 352.592 238.83 352.099 239.172 351.454C239.514 350.809 239.685 350.045 239.685 349.164C239.685 348.282 239.508 347.525 239.152 346.893C238.81 346.261 238.323 345.774 237.691 345.432C237.073 345.09 236.342 344.919 235.5 344.919H231.946V342.214H235.54C236.592 342.214 237.56 342.385 238.442 342.728C239.337 343.057 240.113 343.537 240.771 344.169C241.442 344.787 241.956 345.524 242.311 346.38C242.68 347.222 242.864 348.157 242.864 349.183C242.864 350.197 242.68 351.131 242.311 351.987C241.956 352.842 241.449 353.579 240.791 354.198C240.133 354.816 239.356 355.297 238.461 355.639C237.58 355.981 236.619 356.152 235.579 356.152H232.045ZM229.953 356.152V342.214H233.052V356.152H229.953ZM250.502 356.152L248.192 352.421L247.541 352.006L243.77 346.558H247.304L249.456 350.052L250.088 350.447L253.997 356.152H250.502ZM243.593 356.152L247.521 350.565L249.239 352.5L246.889 356.152H243.593ZM250.068 351.987L248.35 350.052L250.522 346.558H253.799L250.068 351.987ZM259.18 356.152V342.214H262.28V356.152H259.18ZM261.549 350.684V348.019H268.518V350.684H261.549ZM261.549 344.879V342.214H268.834V344.879H261.549ZM270.549 356.152V346.558H273.569V356.152H270.549ZM272.069 345.235C271.595 345.235 271.2 345.077 270.884 344.761C270.582 344.432 270.43 344.037 270.43 343.577C270.43 343.103 270.582 342.708 270.884 342.392C271.2 342.076 271.595 341.918 272.069 341.918C272.543 341.918 272.931 342.076 273.234 342.392C273.536 342.708 273.688 343.103 273.688 343.577C273.688 344.037 273.536 344.432 273.234 344.761C272.931 345.077 272.543 345.235 272.069 345.235ZM282.033 356.152V350.684C282.033 350.184 281.876 349.782 281.56 349.479C281.257 349.164 280.869 349.006 280.395 349.006C280.066 349.006 279.776 349.078 279.526 349.223C279.276 349.354 279.079 349.552 278.934 349.815C278.789 350.065 278.717 350.355 278.717 350.684L277.552 350.111C277.552 349.361 277.717 348.703 278.046 348.137C278.375 347.571 278.829 347.137 279.408 346.834C280 346.518 280.665 346.36 281.402 346.36C282.112 346.36 282.738 346.531 283.277 346.873C283.83 347.202 284.264 347.643 284.58 348.196C284.896 348.749 285.054 349.354 285.054 350.012V356.152H282.033ZM275.696 356.152V346.558H278.717V356.152H275.696ZM291.002 356.35C290.12 356.35 289.33 356.133 288.633 355.698C287.948 355.264 287.402 354.672 286.994 353.921C286.599 353.171 286.402 352.316 286.402 351.355C286.402 350.394 286.599 349.539 286.994 348.788C287.402 348.038 287.948 347.446 288.633 347.012C289.33 346.577 290.12 346.36 291.002 346.36C291.647 346.36 292.226 346.485 292.739 346.735C293.265 346.985 293.693 347.334 294.022 347.782C294.351 348.216 294.536 348.716 294.575 349.282V353.428C294.536 353.994 294.351 354.501 294.022 354.948C293.706 355.382 293.285 355.725 292.759 355.975C292.232 356.225 291.647 356.35 291.002 356.35ZM291.614 353.625C292.259 353.625 292.778 353.415 293.173 352.994C293.568 352.559 293.766 352.013 293.766 351.355C293.766 350.907 293.673 350.513 293.489 350.17C293.318 349.828 293.068 349.565 292.739 349.381C292.423 349.183 292.055 349.085 291.633 349.085C291.212 349.085 290.837 349.183 290.508 349.381C290.192 349.565 289.936 349.828 289.738 350.17C289.554 350.513 289.462 350.907 289.462 351.355C289.462 351.789 289.554 352.178 289.738 352.52C289.922 352.862 290.179 353.132 290.508 353.329C290.837 353.527 291.206 353.625 291.614 353.625ZM293.647 356.152V353.566L294.101 351.236L293.647 348.907V346.558H296.608V356.152H293.647ZM305.072 356.152V350.684C305.072 350.184 304.915 349.782 304.599 349.479C304.296 349.164 303.908 349.006 303.434 349.006C303.105 349.006 302.815 349.078 302.565 349.223C302.315 349.354 302.118 349.552 301.973 349.815C301.828 350.065 301.756 350.355 301.756 350.684L300.591 350.111C300.591 349.361 300.756 348.703 301.085 348.137C301.414 347.571 301.868 347.137 302.447 346.834C303.039 346.518 303.704 346.36 304.441 346.36C305.151 346.36 305.777 346.531 306.316 346.873C306.869 347.202 307.303 347.643 307.619 348.196C307.935 348.749 308.093 349.354 308.093 350.012V356.152H305.072ZM298.735 356.152V346.558H301.756V356.152H298.735ZM314.672 356.369C313.685 356.369 312.79 356.152 311.987 355.718C311.185 355.284 310.553 354.685 310.092 353.921C309.632 353.158 309.401 352.303 309.401 351.355C309.401 350.394 309.632 349.539 310.092 348.788C310.566 348.025 311.204 347.426 312.007 346.992C312.81 346.558 313.712 346.34 314.712 346.34C315.462 346.34 316.147 346.472 316.765 346.735C317.397 346.985 317.956 347.367 318.443 347.88L316.508 349.815C316.285 349.565 316.021 349.381 315.719 349.262C315.429 349.144 315.094 349.085 314.712 349.085C314.278 349.085 313.889 349.183 313.547 349.381C313.218 349.565 312.955 349.828 312.757 350.17C312.573 350.499 312.481 350.888 312.481 351.335C312.481 351.783 312.573 352.178 312.757 352.52C312.955 352.862 313.225 353.132 313.567 353.329C313.909 353.527 314.291 353.625 314.712 353.625C315.107 353.625 315.456 353.559 315.758 353.428C316.074 353.283 316.344 353.086 316.568 352.836L318.483 354.77C317.983 355.297 317.417 355.698 316.785 355.975C316.153 356.238 315.449 356.369 314.672 356.369ZM324.334 356.369C323.294 356.369 322.366 356.159 321.55 355.738C320.747 355.303 320.116 354.705 319.655 353.941C319.194 353.178 318.964 352.316 318.964 351.355C318.964 350.394 319.188 349.539 319.635 348.788C320.096 348.025 320.714 347.426 321.491 346.992C322.267 346.558 323.143 346.34 324.117 346.34C325.064 346.34 325.9 346.544 326.624 346.952C327.348 347.36 327.914 347.926 328.322 348.65C328.743 349.374 328.953 350.203 328.953 351.138C328.953 351.309 328.94 351.493 328.914 351.691C328.901 351.875 328.868 352.092 328.815 352.342L320.543 352.362V350.289L327.532 350.269L326.229 351.138C326.216 350.585 326.13 350.131 325.972 349.776C325.814 349.407 325.578 349.131 325.262 348.946C324.959 348.749 324.584 348.65 324.136 348.65C323.663 348.65 323.248 348.762 322.893 348.986C322.55 349.196 322.281 349.499 322.083 349.894C321.899 350.289 321.807 350.769 321.807 351.335C321.807 351.901 321.905 352.388 322.103 352.796C322.313 353.191 322.603 353.5 322.972 353.724C323.353 353.935 323.801 354.04 324.314 354.04C324.788 354.04 325.216 353.961 325.597 353.803C325.979 353.632 326.315 353.382 326.604 353.053L328.262 354.711C327.789 355.264 327.216 355.678 326.545 355.955C325.874 356.231 325.137 356.369 324.334 356.369ZM336.816 351.079V348.67H339.817C340.199 348.67 340.548 348.591 340.864 348.433C341.179 348.275 341.429 348.045 341.614 347.742C341.798 347.439 341.89 347.071 341.89 346.637C341.89 346.215 341.798 345.853 341.614 345.551C341.429 345.248 341.179 345.018 340.864 344.86C340.548 344.702 340.199 344.623 339.817 344.623H336.816V342.214H340.271C341.153 342.214 341.949 342.392 342.66 342.747C343.371 343.103 343.93 343.616 344.338 344.287C344.759 344.945 344.97 345.728 344.97 346.637C344.97 347.545 344.759 348.334 344.338 349.006C343.93 349.664 343.371 350.177 342.66 350.546C341.949 350.901 341.153 351.079 340.271 351.079H336.816ZM334.447 356.152V342.214H337.547V356.152H334.447ZM350.782 356.369C349.795 356.369 348.9 356.152 348.097 355.718C347.308 355.27 346.683 354.665 346.222 353.902C345.761 353.138 345.531 352.283 345.531 351.335C345.531 350.388 345.761 349.539 346.222 348.788C346.683 348.038 347.308 347.446 348.097 347.012C348.887 346.564 349.782 346.34 350.782 346.34C351.783 346.34 352.678 346.558 353.467 346.992C354.257 347.426 354.882 348.025 355.343 348.788C355.804 349.539 356.034 350.388 356.034 351.335C356.034 352.283 355.804 353.138 355.343 353.902C354.882 354.665 354.257 355.27 353.467 355.718C352.678 356.152 351.783 356.369 350.782 356.369ZM350.782 353.625C351.217 353.625 351.598 353.533 351.927 353.349C352.257 353.151 352.507 352.882 352.678 352.539C352.862 352.184 352.954 351.783 352.954 351.335C352.954 350.888 352.862 350.499 352.678 350.17C352.493 349.828 352.237 349.565 351.908 349.381C351.592 349.183 351.217 349.085 350.782 349.085C350.361 349.085 349.986 349.183 349.657 349.381C349.328 349.565 349.071 349.828 348.887 350.17C348.703 350.513 348.611 350.907 348.611 351.355C348.611 351.789 348.703 352.184 348.887 352.539C349.071 352.882 349.328 353.151 349.657 353.349C349.986 353.533 350.361 353.625 350.782 353.625ZM362.157 356.369C361.17 356.369 360.275 356.152 359.472 355.718C358.683 355.27 358.058 354.665 357.597 353.902C357.136 353.138 356.906 352.283 356.906 351.335C356.906 350.388 357.136 349.539 357.597 348.788C358.058 348.038 358.683 347.446 359.472 347.012C360.262 346.564 361.157 346.34 362.157 346.34C363.158 346.34 364.053 346.558 364.842 346.992C365.632 347.426 366.257 348.025 366.718 348.788C367.178 349.539 367.409 350.388 367.409 351.335C367.409 352.283 367.178 353.138 366.718 353.902C366.257 354.665 365.632 355.27 364.842 355.718C364.053 356.152 363.158 356.369 362.157 356.369ZM362.157 353.625C362.592 353.625 362.973 353.533 363.302 353.349C363.631 353.151 363.881 352.882 364.053 352.539C364.237 352.184 364.329 351.783 364.329 351.335C364.329 350.888 364.237 350.499 364.053 350.17C363.868 349.828 363.612 349.565 363.283 349.381C362.967 349.183 362.592 349.085 362.157 349.085C361.736 349.085 361.361 349.183 361.032 349.381C360.703 349.565 360.446 349.828 360.262 350.17C360.078 350.513 359.986 350.907 359.986 351.355C359.986 351.789 360.078 352.184 360.262 352.539C360.446 352.882 360.703 353.151 361.032 353.349C361.361 353.533 361.736 353.625 362.157 353.625ZM368.913 356.152V341.819H371.933V356.152H368.913Z" fill="#1E1E20"/>
<g clip-path="url(#clip0_158_2456)">
<path d="M520.841 363.356C513.052 363.356 506.739 357.043 506.739 349.254C506.739 341.466 513.052 335.153 520.841 335.153C528.629 335.153 534.942 341.466 534.942 349.254C534.942 357.043 528.629 363.356 520.841 363.356ZM519.435 354.895L529.405 344.924L527.411 342.93L519.435 350.907L515.445 346.918L513.451 348.912L519.435 354.895Z" fill="#14B082"/>
</g>
</g>
<g filter="url(#filter1_d_158_2456)">
<rect x="461.592" y="99.8626" width="249.492" height="117.704" rx="10.0602" fill="white"/>
<path d="M483.116 196.659V186.885H484.44V196.659H483.116ZM484.017 196.659V195.448H489.256V196.659H484.017ZM493.429 196.8C492.772 196.8 492.18 196.645 491.654 196.335C491.129 196.026 490.711 195.608 490.401 195.082C490.091 194.547 489.936 193.951 489.936 193.293C489.936 192.645 490.091 192.063 490.401 191.547C490.711 191.021 491.129 190.603 491.654 190.293C492.18 189.984 492.772 189.829 493.429 189.829C494.077 189.829 494.664 189.984 495.189 190.293C495.725 190.594 496.147 191.007 496.457 191.533C496.767 192.059 496.922 192.645 496.922 193.293C496.922 193.951 496.767 194.547 496.457 195.082C496.147 195.608 495.725 196.026 495.189 196.335C494.664 196.645 494.077 196.8 493.429 196.8ZM493.429 195.575C493.851 195.575 494.227 195.476 494.556 195.279C494.884 195.082 495.143 194.814 495.33 194.476C495.518 194.129 495.612 193.735 495.612 193.293C495.612 192.861 495.513 192.476 495.316 192.138C495.128 191.8 494.87 191.537 494.542 191.35C494.222 191.152 493.851 191.054 493.429 191.054C493.006 191.054 492.631 191.152 492.302 191.35C491.974 191.537 491.715 191.8 491.528 192.138C491.34 192.476 491.246 192.861 491.246 193.293C491.246 193.735 491.34 194.129 491.528 194.476C491.715 194.814 491.974 195.082 492.302 195.279C492.631 195.476 493.006 195.575 493.429 195.575ZM500.073 196.659L497.425 189.969H498.749L500.664 195.181H500.242L502.143 189.969H502.876L504.777 195.181H504.355L506.27 189.969H507.594L504.96 196.659H504.214L502.284 191.603H502.749L500.805 196.659H500.073ZM511.664 196.659V189.969H512.932V196.659H511.664ZM512.298 188.631C512.063 188.631 511.871 188.556 511.721 188.406C511.57 188.246 511.495 188.049 511.495 187.815C511.495 187.589 511.57 187.401 511.721 187.251C511.871 187.092 512.063 187.012 512.298 187.012C512.533 187.012 512.725 187.092 512.876 187.251C513.026 187.401 513.101 187.589 513.101 187.815C513.101 188.049 513.026 188.246 512.876 188.406C512.725 188.556 512.533 188.631 512.298 188.631ZM519.532 196.659V192.758C519.532 192.251 519.373 191.833 519.053 191.505C518.734 191.176 518.321 191.012 517.814 191.012C517.476 191.012 517.176 191.087 516.913 191.237C516.65 191.387 516.443 191.594 516.293 191.857C516.143 192.12 516.068 192.42 516.068 192.758L515.546 192.462C515.546 191.955 515.659 191.505 515.884 191.11C516.11 190.716 516.424 190.406 516.828 190.181C517.232 189.946 517.687 189.829 518.194 189.829C518.701 189.829 519.147 189.955 519.532 190.209C519.927 190.462 520.236 190.796 520.462 191.209C520.687 191.613 520.8 192.044 520.8 192.505V196.659H519.532ZM514.8 196.659V189.969H516.068V196.659H514.8ZM523.462 196.659V187.167H524.729V196.659H523.462ZM521.814 191.124V189.969H526.377V191.124H521.814ZM530.511 196.8C529.844 196.8 529.243 196.65 528.708 196.35C528.173 196.04 527.751 195.622 527.441 195.096C527.131 194.57 526.976 193.974 526.976 193.307C526.976 192.65 527.126 192.059 527.427 191.533C527.736 191.007 528.15 190.594 528.666 190.293C529.192 189.984 529.779 189.829 530.427 189.829C531.046 189.829 531.591 189.969 532.06 190.251C532.539 190.533 532.91 190.922 533.173 191.42C533.445 191.918 533.581 192.481 533.581 193.11C533.581 193.204 533.577 193.307 533.567 193.42C533.558 193.523 533.539 193.645 533.511 193.786H527.863V192.73H532.835L532.37 193.138C532.37 192.688 532.29 192.307 532.131 191.998C531.971 191.678 531.746 191.434 531.455 191.265C531.164 191.087 530.812 190.998 530.398 190.998C529.966 190.998 529.586 191.091 529.258 191.279C528.929 191.467 528.675 191.73 528.497 192.068C528.319 192.406 528.229 192.805 528.229 193.265C528.229 193.735 528.323 194.148 528.511 194.505C528.699 194.852 528.966 195.124 529.314 195.321C529.661 195.509 530.06 195.603 530.511 195.603C530.887 195.603 531.229 195.537 531.539 195.406C531.858 195.274 532.131 195.077 532.356 194.814L533.173 195.645C532.854 196.021 532.459 196.307 531.99 196.504C531.53 196.702 531.037 196.8 530.511 196.8ZM534.964 196.659V189.969H536.231V196.659H534.964ZM536.231 192.843L535.752 192.631C535.752 191.777 535.949 191.096 536.344 190.589C536.738 190.082 537.306 189.829 538.048 189.829C538.386 189.829 538.691 189.89 538.963 190.012C539.236 190.124 539.489 190.317 539.724 190.589L538.893 191.448C538.752 191.298 538.597 191.19 538.428 191.124C538.259 191.059 538.062 191.026 537.837 191.026C537.367 191.026 536.982 191.176 536.682 191.476C536.381 191.777 536.231 192.232 536.231 192.843ZM543.495 196.8C542.828 196.8 542.227 196.65 541.692 196.35C541.157 196.04 540.734 195.622 540.425 195.096C540.115 194.57 539.96 193.974 539.96 193.307C539.96 192.65 540.11 192.059 540.41 191.533C540.72 191.007 541.133 190.594 541.65 190.293C542.176 189.984 542.763 189.829 543.41 189.829C544.03 189.829 544.575 189.969 545.044 190.251C545.523 190.533 545.894 190.922 546.157 191.42C546.429 191.918 546.565 192.481 546.565 193.11C546.565 193.204 546.561 193.307 546.551 193.42C546.542 193.523 546.523 193.645 546.495 193.786H540.847V192.73H545.819L545.354 193.138C545.354 192.688 545.274 192.307 545.115 191.998C544.955 191.678 544.73 191.434 544.439 191.265C544.147 191.087 543.795 190.998 543.382 190.998C542.95 190.998 542.57 191.091 542.241 191.279C541.913 191.467 541.659 191.73 541.481 192.068C541.302 192.406 541.213 192.805 541.213 193.265C541.213 193.735 541.307 194.148 541.495 194.505C541.683 194.852 541.95 195.124 542.298 195.321C542.645 195.509 543.044 195.603 543.495 195.603C543.871 195.603 544.213 195.537 544.523 195.406C544.842 195.274 545.115 195.077 545.34 194.814L546.157 195.645C545.838 196.021 545.443 196.307 544.974 196.504C544.514 196.702 544.021 196.8 543.495 196.8ZM550.074 196.8C549.699 196.8 549.342 196.753 549.004 196.659C548.675 196.556 548.37 196.415 548.088 196.237C547.807 196.049 547.562 195.828 547.356 195.575L548.173 194.758C548.417 195.059 548.699 195.284 549.018 195.434C549.337 195.575 549.694 195.645 550.088 195.645C550.483 195.645 550.788 195.58 551.004 195.448C551.22 195.307 551.328 195.115 551.328 194.871C551.328 194.627 551.238 194.439 551.06 194.307C550.891 194.167 550.67 194.054 550.398 193.969C550.126 193.875 549.835 193.786 549.525 193.702C549.224 193.608 548.938 193.49 548.666 193.35C548.393 193.209 548.168 193.016 547.99 192.772C547.821 192.528 547.736 192.204 547.736 191.8C547.736 191.397 547.835 191.049 548.032 190.758C548.229 190.458 548.501 190.228 548.849 190.068C549.206 189.908 549.633 189.829 550.13 189.829C550.656 189.829 551.121 189.922 551.525 190.11C551.938 190.289 552.276 190.561 552.539 190.927L551.722 191.744C551.534 191.5 551.299 191.312 551.018 191.181C550.745 191.049 550.436 190.983 550.088 190.983C549.722 190.983 549.44 191.049 549.243 191.181C549.055 191.303 548.961 191.476 548.961 191.702C548.961 191.927 549.046 192.101 549.215 192.223C549.384 192.345 549.605 192.448 549.877 192.533C550.159 192.617 550.45 192.706 550.75 192.8C551.051 192.885 551.337 193.002 551.609 193.152C551.882 193.303 552.102 193.505 552.271 193.758C552.45 194.012 552.539 194.345 552.539 194.758C552.539 195.387 552.314 195.885 551.863 196.251C551.422 196.617 550.825 196.8 550.074 196.8ZM554.986 196.659V187.167H556.254V196.659H554.986ZM553.338 191.124V189.969H557.902V191.124H553.338ZM562.073 196.659V189.969H563.34V196.659H562.073ZM563.34 192.843L562.862 192.631C562.862 191.777 563.059 191.096 563.453 190.589C563.848 190.082 564.416 189.829 565.157 189.829C565.495 189.829 565.801 189.89 566.073 190.012C566.345 190.124 566.599 190.317 566.833 190.589L566.002 191.448C565.862 191.298 565.707 191.19 565.538 191.124C565.369 191.059 565.171 191.026 564.946 191.026C564.477 191.026 564.092 191.176 563.791 191.476C563.491 191.777 563.34 192.232 563.34 192.843ZM570.351 196.8C569.74 196.8 569.186 196.65 568.689 196.35C568.191 196.04 567.797 195.622 567.506 195.096C567.224 194.57 567.083 193.979 567.083 193.321C567.083 192.664 567.224 192.073 567.506 191.547C567.797 191.021 568.187 190.603 568.675 190.293C569.172 189.984 569.731 189.829 570.351 189.829C570.858 189.829 571.309 189.937 571.703 190.153C572.107 190.359 572.431 190.65 572.675 191.026C572.919 191.392 573.055 191.819 573.083 192.307V194.321C573.055 194.8 572.919 195.228 572.675 195.603C572.44 195.979 572.121 196.274 571.717 196.49C571.323 196.697 570.867 196.8 570.351 196.8ZM570.562 195.603C571.191 195.603 571.698 195.392 572.083 194.969C572.468 194.537 572.661 193.988 572.661 193.321C572.661 192.861 572.571 192.462 572.393 192.124C572.224 191.777 571.98 191.509 571.661 191.322C571.341 191.124 570.97 191.026 570.548 191.026C570.125 191.026 569.75 191.124 569.421 191.322C569.102 191.519 568.848 191.791 568.661 192.138C568.482 192.476 568.393 192.866 568.393 193.307C568.393 193.758 568.482 194.157 568.661 194.505C568.848 194.843 569.107 195.11 569.435 195.307C569.764 195.505 570.14 195.603 570.562 195.603ZM572.576 196.659V194.857L572.816 193.223L572.576 191.603V189.969H573.858V196.659H572.576ZM576.704 196.659V187.167H577.971V196.659H576.704ZM575.056 191.124V189.969H579.619V191.124H575.056ZM583.753 196.8C583.087 196.8 582.486 196.65 581.95 196.35C581.415 196.04 580.993 195.622 580.683 195.096C580.373 194.57 580.218 193.974 580.218 193.307C580.218 192.65 580.368 192.059 580.669 191.533C580.979 191.007 581.392 190.594 581.908 190.293C582.434 189.984 583.021 189.829 583.669 189.829C584.288 189.829 584.833 189.969 585.303 190.251C585.781 190.533 586.152 190.922 586.415 191.42C586.687 191.918 586.824 192.481 586.824 193.11C586.824 193.204 586.819 193.307 586.81 193.42C586.8 193.523 586.781 193.645 586.753 193.786H581.105V192.73H586.077L585.612 193.138C585.612 192.688 585.533 192.307 585.373 191.998C585.213 191.678 584.988 191.434 584.697 191.265C584.406 191.087 584.054 190.998 583.641 190.998C583.209 190.998 582.828 191.091 582.5 191.279C582.171 191.467 581.918 191.73 581.739 192.068C581.561 192.406 581.472 192.805 581.472 193.265C581.472 193.735 581.566 194.148 581.753 194.505C581.941 194.852 582.209 195.124 582.556 195.321C582.904 195.509 583.303 195.603 583.753 195.603C584.129 195.603 584.472 195.537 584.781 195.406C585.101 195.274 585.373 195.077 585.598 194.814L586.415 195.645C586.096 196.021 585.702 196.307 585.232 196.504C584.772 196.702 584.279 196.8 583.753 196.8ZM590.332 196.8C589.957 196.8 589.6 196.753 589.262 196.659C588.933 196.556 588.628 196.415 588.347 196.237C588.065 196.049 587.821 195.828 587.614 195.575L588.431 194.758C588.675 195.059 588.957 195.284 589.276 195.434C589.595 195.575 589.952 195.645 590.347 195.645C590.741 195.645 591.046 195.58 591.262 195.448C591.478 195.307 591.586 195.115 591.586 194.871C591.586 194.627 591.497 194.439 591.318 194.307C591.149 194.167 590.929 194.054 590.656 193.969C590.384 193.875 590.093 193.786 589.783 193.702C589.483 193.608 589.196 193.49 588.924 193.35C588.652 193.209 588.426 193.016 588.248 192.772C588.079 192.528 587.994 192.204 587.994 191.8C587.994 191.397 588.093 191.049 588.29 190.758C588.487 190.458 588.76 190.228 589.107 190.068C589.464 189.908 589.891 189.829 590.389 189.829C590.915 189.829 591.379 189.922 591.783 190.11C592.196 190.289 592.534 190.561 592.797 190.927L591.98 191.744C591.793 191.5 591.558 191.312 591.276 191.181C591.004 191.049 590.694 190.983 590.347 190.983C589.98 190.983 589.699 191.049 589.501 191.181C589.314 191.303 589.22 191.476 589.22 191.702C589.22 191.927 589.304 192.101 589.473 192.223C589.642 192.345 589.863 192.448 590.135 192.533C590.417 192.617 590.708 192.706 591.008 192.8C591.309 192.885 591.595 193.002 591.868 193.152C592.14 193.303 592.361 193.505 592.53 193.758C592.708 194.012 592.797 194.345 592.797 194.758C592.797 195.387 592.572 195.885 592.121 196.251C591.68 196.617 591.084 196.8 590.332 196.8Z" fill="#656575"/>
<g clip-path="url(#clip1_158_2456)">
<path d="M482.303 164.222L488.838 151.236H493.655L486.979 164.222H482.303ZM482.303 166.701V164.222L483.768 162.954H498.247V166.701H482.303ZM491.683 171.123V158.814H496.021V171.123H491.683ZM502.359 171.433C501.627 171.433 501.017 171.18 500.529 170.673C500.04 170.166 499.796 169.555 499.796 168.842C499.796 168.09 500.04 167.471 500.529 166.983C501.017 166.475 501.627 166.222 502.359 166.222C503.111 166.222 503.721 166.475 504.19 166.983C504.679 167.471 504.923 168.09 504.923 168.842C504.923 169.555 504.679 170.166 504.19 170.673C503.721 171.18 503.111 171.433 502.359 171.433ZM513.734 171.433C512.363 171.433 511.077 171.198 509.875 170.729C508.692 170.241 507.706 169.546 506.917 168.644L509.79 165.799C510.147 166.325 510.664 166.757 511.34 167.095C512.035 167.414 512.786 167.574 513.593 167.574C514.307 167.574 514.927 167.452 515.452 167.208C515.978 166.945 516.391 166.579 516.692 166.109C516.992 165.621 517.142 165.058 517.142 164.419C517.142 163.762 516.992 163.199 516.692 162.729C516.391 162.26 515.969 161.903 515.424 161.659C514.898 161.396 514.297 161.264 513.621 161.264C512.945 161.264 512.326 161.358 511.762 161.546C511.199 161.715 510.682 161.978 510.213 162.335L510.579 159.518C511.011 159.18 511.424 158.908 511.819 158.701C512.213 158.476 512.645 158.307 513.114 158.194C513.584 158.081 514.138 158.025 514.776 158.025C516.241 158.025 517.471 158.325 518.466 158.926C519.48 159.527 520.241 160.325 520.748 161.321C521.274 162.316 521.537 163.415 521.537 164.616C521.537 165.931 521.208 167.105 520.551 168.137C519.912 169.17 519.011 169.978 517.847 170.56C516.682 171.142 515.311 171.433 513.734 171.433ZM510.213 162.335L508.298 160.56L509.255 151.236H513.255L512.213 160.476L510.213 162.335ZM509.847 154.983L509.255 151.236H520.438V154.983H509.847ZM527.44 159.236C526.67 159.236 525.966 159.058 525.327 158.701C524.708 158.325 524.21 157.828 523.834 157.208C523.459 156.57 523.271 155.856 523.271 155.067C523.271 154.297 523.459 153.603 523.834 152.983C524.21 152.363 524.708 151.875 525.327 151.518C525.947 151.142 526.642 150.955 527.412 150.955C528.219 150.955 528.933 151.142 529.553 151.518C530.191 151.875 530.698 152.363 531.074 152.983C531.449 153.603 531.637 154.297 531.637 155.067C531.637 155.856 531.449 156.57 531.074 157.208C530.698 157.828 530.191 158.325 529.553 158.701C528.933 159.058 528.229 159.236 527.44 159.236ZM527.44 156.307C527.797 156.307 528.088 156.194 528.313 155.969C528.539 155.743 528.651 155.452 528.651 155.095C528.651 154.739 528.539 154.448 528.313 154.222C528.088 153.997 527.797 153.884 527.44 153.884C527.102 153.884 526.82 153.997 526.595 154.222C526.37 154.448 526.257 154.739 526.257 155.095C526.257 155.452 526.37 155.743 526.595 155.969C526.82 156.194 527.102 156.307 527.44 156.307ZM536.51 171.405C535.74 171.405 535.036 171.217 534.398 170.842C533.778 170.466 533.28 169.968 532.905 169.349C532.529 168.71 532.341 168.006 532.341 167.236C532.341 166.447 532.529 165.753 532.905 165.152C533.28 164.532 533.778 164.034 534.398 163.659C535.017 163.283 535.712 163.095 536.482 163.095C537.29 163.095 538.003 163.283 538.623 163.659C539.261 164.034 539.768 164.532 540.144 165.152C540.52 165.753 540.707 166.447 540.707 167.236C540.707 168.006 540.52 168.71 540.144 169.349C539.768 169.987 539.261 170.494 538.623 170.87C538.003 171.227 537.299 171.405 536.51 171.405ZM536.51 168.475C536.867 168.475 537.158 168.363 537.383 168.137C537.609 167.912 537.721 167.612 537.721 167.236C537.721 166.898 537.609 166.616 537.383 166.391C537.158 166.147 536.867 166.025 536.51 166.025C536.172 166.025 535.891 166.147 535.665 166.391C535.44 166.616 535.327 166.898 535.327 167.236C535.327 167.612 535.44 167.912 535.665 168.137C535.891 168.363 536.172 168.475 536.51 168.475ZM524.06 171.123L535.975 151.236H539.919L528.003 171.123H524.06Z" fill="#2E2E3A"/>
</g>
<path d="M487.475 133.259C486.542 133.259 485.716 133.061 484.997 132.664C484.288 132.267 483.73 131.719 483.323 131.022C482.926 130.314 482.727 129.509 482.727 128.607V121.718H485.27V128.752C485.27 129.203 485.367 129.595 485.56 129.927C485.753 130.26 486.016 130.517 486.349 130.7C486.692 130.872 487.068 130.957 487.475 130.957C487.905 130.957 488.28 130.872 488.602 130.7C488.924 130.517 489.176 130.265 489.359 129.943C489.552 129.611 489.648 129.219 489.648 128.768V121.718H492.192V128.623C492.192 129.525 491.993 130.324 491.596 131.022C491.199 131.719 490.646 132.267 489.938 132.664C489.23 133.061 488.409 133.259 487.475 133.259ZM497.348 133.259C496.414 133.259 495.609 133.109 494.933 132.809C494.268 132.497 493.656 132.031 493.098 131.408L494.74 129.782C495.105 130.201 495.508 130.528 495.947 130.764C496.398 130.99 496.919 131.102 497.509 131.102C498.045 131.102 498.458 131.006 498.748 130.813C499.049 130.619 499.199 130.351 499.199 130.008C499.199 129.697 499.102 129.444 498.909 129.251C498.716 129.058 498.458 128.892 498.137 128.752C497.825 128.613 497.477 128.479 497.09 128.35C496.715 128.221 496.339 128.076 495.964 127.915C495.588 127.744 495.239 127.534 494.917 127.288C494.606 127.03 494.354 126.713 494.161 126.338C493.968 125.952 493.871 125.469 493.871 124.889C493.871 124.192 494.037 123.591 494.37 123.086C494.713 122.582 495.186 122.201 495.787 121.944C496.387 121.675 497.08 121.541 497.863 121.541C498.657 121.541 499.381 121.681 500.036 121.96C500.701 122.239 501.249 122.62 501.678 123.102L500.036 124.728C499.693 124.374 499.344 124.111 498.99 123.939C498.646 123.768 498.255 123.682 497.815 123.682C497.375 123.682 497.026 123.768 496.768 123.939C496.511 124.1 496.382 124.337 496.382 124.648C496.382 124.937 496.479 125.174 496.672 125.356C496.865 125.528 497.117 125.678 497.428 125.807C497.75 125.935 498.099 126.064 498.475 126.193C498.861 126.322 499.242 126.472 499.617 126.644C499.993 126.815 500.336 127.035 500.648 127.304C500.97 127.561 501.227 127.894 501.42 128.302C501.613 128.699 501.71 129.192 501.71 129.782C501.71 130.866 501.324 131.719 500.551 132.342C499.778 132.953 498.711 133.259 497.348 133.259ZM504.881 133.082V130.861H507.698C508.385 130.861 508.986 130.727 509.501 130.458C510.016 130.179 510.413 129.777 510.692 129.251C510.971 128.725 511.11 128.103 511.11 127.384C511.11 126.665 510.965 126.048 510.676 125.533C510.397 125.018 510 124.621 509.485 124.342C508.98 124.063 508.385 123.923 507.698 123.923H504.801V121.718H507.73C508.589 121.718 509.377 121.858 510.096 122.137C510.826 122.405 511.459 122.797 511.996 123.312C512.543 123.816 512.961 124.417 513.251 125.115C513.552 125.801 513.702 126.563 513.702 127.4C513.702 128.226 513.552 128.988 513.251 129.686C512.961 130.383 512.548 130.984 512.012 131.489C511.475 131.993 510.842 132.385 510.112 132.664C509.393 132.943 508.61 133.082 507.762 133.082H504.881ZM503.175 133.082V121.718H505.702V133.082H503.175ZM520.557 133.259C519.71 133.259 518.921 133.114 518.191 132.825C517.472 132.524 516.839 132.106 516.292 131.569C515.755 131.033 515.337 130.41 515.036 129.702C514.736 128.983 514.586 128.21 514.586 127.384C514.586 126.558 514.736 125.791 515.036 125.082C515.337 124.363 515.755 123.741 516.292 123.215C516.828 122.689 517.456 122.282 518.175 121.992C518.905 121.691 519.693 121.541 520.541 121.541C521.443 121.541 522.242 121.686 522.94 121.976C523.648 122.265 524.265 122.663 524.791 123.167L523.1 124.873C522.8 124.551 522.435 124.299 522.006 124.117C521.587 123.934 521.099 123.843 520.541 123.843C520.048 123.843 519.591 123.929 519.173 124.1C518.765 124.261 518.411 124.497 518.111 124.809C517.821 125.12 517.59 125.495 517.418 125.935C517.258 126.375 517.177 126.858 517.177 127.384C517.177 127.921 517.258 128.409 517.418 128.849C517.59 129.289 517.821 129.664 518.111 129.976C518.411 130.287 518.765 130.528 519.173 130.7C519.591 130.872 520.048 130.957 520.541 130.957C521.121 130.957 521.625 130.866 522.054 130.684C522.483 130.501 522.854 130.249 523.165 129.927L524.871 131.633C524.324 132.138 523.696 132.535 522.988 132.825C522.29 133.114 521.48 133.259 520.557 133.259ZM529.038 133.082V121.718H531.565V133.082H529.038ZM538.55 133.082V128.623C538.55 128.216 538.422 127.888 538.164 127.642C537.917 127.384 537.601 127.255 537.215 127.255C536.946 127.255 536.71 127.314 536.506 127.432C536.302 127.54 536.141 127.701 536.023 127.915C535.905 128.119 535.846 128.355 535.846 128.623L534.897 128.157C534.897 127.545 535.031 127.008 535.299 126.547C535.567 126.086 535.938 125.732 536.41 125.485C536.893 125.227 537.434 125.098 538.035 125.098C538.615 125.098 539.125 125.238 539.565 125.517C540.015 125.785 540.369 126.145 540.627 126.595C540.884 127.046 541.013 127.54 541.013 128.076V133.082H538.55ZM533.384 133.082V125.259H535.846V133.082H533.384ZM543.466 133.082V122.024H545.929V133.082H543.466ZM541.696 127.352V125.259H547.7V127.352H541.696ZM552.346 133.259C551.498 133.259 550.742 133.088 550.076 132.744C549.422 132.39 548.907 131.902 548.531 131.279C548.155 130.657 547.968 129.954 547.968 129.171C547.968 128.387 548.15 127.69 548.515 127.078C548.891 126.456 549.395 125.968 550.028 125.613C550.661 125.259 551.375 125.082 552.169 125.082C552.941 125.082 553.623 125.249 554.213 125.581C554.803 125.914 555.265 126.375 555.597 126.966C555.941 127.556 556.112 128.232 556.112 128.994C556.112 129.133 556.102 129.283 556.08 129.444C556.069 129.595 556.043 129.772 556 129.976L549.255 129.992V128.302L554.953 128.285L553.891 128.994C553.88 128.543 553.811 128.173 553.682 127.883C553.553 127.583 553.36 127.357 553.102 127.207C552.856 127.046 552.55 126.966 552.185 126.966C551.799 126.966 551.461 127.057 551.171 127.239C550.892 127.411 550.672 127.658 550.511 127.98C550.361 128.302 550.286 128.693 550.286 129.155C550.286 129.616 550.366 130.013 550.527 130.346C550.699 130.668 550.935 130.92 551.235 131.102C551.546 131.274 551.911 131.36 552.33 131.36C552.716 131.36 553.065 131.295 553.376 131.167C553.687 131.027 553.961 130.823 554.197 130.555L555.549 131.907C555.163 132.358 554.696 132.696 554.149 132.921C553.601 133.147 553 133.259 552.346 133.259ZM557.156 133.082V125.259H559.619V133.082H557.156ZM559.619 128.784L558.589 127.98C558.793 127.068 559.136 126.359 559.619 125.855C560.102 125.351 560.773 125.098 561.631 125.098C562.007 125.098 562.334 125.157 562.613 125.275C562.903 125.383 563.155 125.554 563.369 125.791L561.905 127.642C561.797 127.524 561.663 127.432 561.502 127.368C561.341 127.304 561.159 127.271 560.955 127.271C560.547 127.271 560.22 127.4 559.973 127.658C559.737 127.905 559.619 128.28 559.619 128.784ZM567.524 133.259C566.676 133.259 565.919 133.088 565.254 132.744C564.599 132.39 564.084 131.902 563.709 131.279C563.333 130.657 563.145 129.954 563.145 129.171C563.145 128.387 563.328 127.69 563.693 127.078C564.068 126.456 564.573 125.968 565.206 125.613C565.839 125.259 566.552 125.082 567.347 125.082C568.119 125.082 568.801 125.249 569.391 125.581C569.981 125.914 570.442 126.375 570.775 126.966C571.118 127.556 571.29 128.232 571.29 128.994C571.29 129.133 571.279 129.283 571.258 129.444C571.247 129.595 571.22 129.772 571.177 129.976L564.433 129.992V128.302L570.131 128.285L569.069 128.994C569.058 128.543 568.988 128.173 568.86 127.883C568.731 127.583 568.538 127.357 568.28 127.207C568.033 127.046 567.728 126.966 567.363 126.966C566.976 126.966 566.638 127.057 566.349 127.239C566.07 127.411 565.85 127.658 565.689 127.98C565.538 128.302 565.463 128.693 565.463 129.155C565.463 129.616 565.544 130.013 565.705 130.346C565.876 130.668 566.113 130.92 566.413 131.102C566.724 131.274 567.089 131.36 567.508 131.36C567.894 131.36 568.243 131.295 568.554 131.167C568.865 131.027 569.139 130.823 569.375 130.555L570.727 131.907C570.34 132.358 569.874 132.696 569.326 132.921C568.779 133.147 568.178 133.259 567.524 133.259ZM575.183 133.275C574.722 133.275 574.266 133.216 573.815 133.098C573.375 132.98 572.962 132.814 572.575 132.599C572.2 132.374 571.878 132.116 571.61 131.827L573.01 130.41C573.268 130.689 573.573 130.909 573.928 131.07C574.282 131.22 574.668 131.295 575.086 131.295C575.376 131.295 575.596 131.253 575.746 131.167C575.907 131.081 575.988 130.963 575.988 130.813C575.988 130.619 575.891 130.475 575.698 130.378C575.516 130.271 575.28 130.179 574.99 130.104C574.7 130.018 574.394 129.927 574.072 129.831C573.75 129.734 573.445 129.6 573.155 129.428C572.865 129.257 572.629 129.021 572.447 128.72C572.264 128.409 572.173 128.017 572.173 127.545C572.173 127.041 572.302 126.606 572.559 126.241C572.817 125.866 573.182 125.571 573.654 125.356C574.126 125.141 574.679 125.034 575.312 125.034C575.977 125.034 576.589 125.152 577.147 125.388C577.716 125.613 578.177 125.952 578.531 126.402L577.131 127.819C576.884 127.529 576.605 127.325 576.294 127.207C575.993 127.089 575.698 127.03 575.408 127.03C575.129 127.03 574.92 127.073 574.781 127.159C574.641 127.234 574.571 127.347 574.571 127.497C574.571 127.658 574.663 127.786 574.845 127.883C575.027 127.98 575.264 128.065 575.553 128.141C575.843 128.216 576.149 128.307 576.471 128.414C576.793 128.522 577.099 128.666 577.388 128.849C577.678 129.031 577.914 129.278 578.096 129.589C578.279 129.89 578.37 130.287 578.37 130.78C578.37 131.542 578.08 132.149 577.501 132.599C576.932 133.05 576.16 133.275 575.183 133.275ZM580.672 133.082V122.024H583.135V133.082H580.672ZM578.901 127.352V125.259H584.905V127.352H578.901Z" fill="#262631"/>
</g>
<defs>
<filter id="filter0_d_158_2456" x="0.428093" y="0.132887" width="658.671" height="502.144" filterUnits="userSpaceOnUse" color-interpolation-filters="sRGB">
<feFlood flood-opacity="0" result="BackgroundImageFix"/>
<feColorMatrix in="SourceAlpha" type="matrix" values="0 0 0 0 0 0 0 0 0 0 0 0 0 0 0 0 0 0 127 0" result="hardAlpha"/>
<feOffset dy="4.70479"/>
<feGaussianBlur stdDeviation="35.286"/>
<feComposite in2="hardAlpha" operator="out"/>
<feColorMatrix type="matrix" values="0 0 0 0 0 0 0 0 0 0 0 0 0 0 0 0 0 0 0.08 0"/>
<feBlend mode="normal" in2="BackgroundImageFix" result="effect1_dropShadow_158_2456"/>
<feBlend mode="normal" in="SourceGraphic" in2="effect1_dropShadow_158_2456" result="shape"/>
</filter>
<filter id="filter1_d_158_2456" x="403.894" y="92.9389" width="364.888" height="233.1" filterUnits="userSpaceOnUse" color-interpolation-filters="sRGB">
<feFlood flood-opacity="0" result="BackgroundImageFix"/>
<feColorMatrix in="SourceAlpha" type="matrix" values="0 0 0 0 0 0 0 0 0 0 0 0 0 0 0 0 0 0 127 0" result="hardAlpha"/>
<feOffset dy="50.7742"/>
<feGaussianBlur stdDeviation="28.849"/>
<feComposite in2="hardAlpha" operator="out"/>
<feColorMatrix type="matrix" values="0 0 0 0 0 0 0 0 0 0 0 0 0 0 0 0 0 0 0.08 0"/>
<feBlend mode="normal" in2="BackgroundImageFix" result="effect1_dropShadow_158_2456"/>
<feBlend mode="normal" in="SourceGraphic" in2="effect1_dropShadow_158_2456" result="shape"/>
</filter>
<linearGradient id="paint0_linear_158_2456" x1="136.077" y1="146.497" x2="167.502" y2="146.836" gradientUnits="userSpaceOnUse">
<stop stop-color="#41287B"/>
<stop offset="0.123" stop-color="#462779"/>
<stop offset="0.284" stop-color="#572775"/>
<stop offset="0.465" stop-color="#72266E"/>
<stop offset="0.663" stop-color="#982565"/>
<stop offset="0.87" stop-color="#C82459"/>
<stop offset="0.99" stop-color="#E72452"/>
</linearGradient>
<linearGradient id="paint1_linear_158_2456" x1="-511.42" y1="962.724" x2="-511.42" y2="943.192" gradientUnits="userSpaceOnUse">
<stop stop-color="#00F3FF"/>
<stop offset="0.238" stop-color="#00EFFC"/>
<stop offset="0.44" stop-color="#00E5F4"/>
<stop offset="0.629" stop-color="#00D3E7"/>
<stop offset="0.81" stop-color="#00BAD4"/>
<stop offset="0.983" stop-color="#009BBC"/>
<stop offset="1" stop-color="#0098BA"/>
</linearGradient>
<linearGradient id="paint2_linear_158_2456" x1="-517.601" y1="962.002" x2="-504.493" y2="962.002" gradientUnits="userSpaceOnUse">
<stop stop-color="#233B55"/>
<stop offset="1" stop-color="#131D32"/>
</linearGradient>
<linearGradient id="paint3_linear_158_2456" x1="-533.545" y1="958.778" x2="-509.185" y2="958.778" gradientUnits="userSpaceOnUse">
<stop stop-color="#49A09D"/>
<stop offset="0.149" stop-color="#4A989B"/>
<stop offset="0.375" stop-color="#4E8396"/>
<stop offset="0.65" stop-color="#54618E"/>
<stop offset="0.96" stop-color="#5D3283"/>
<stop offset="1" stop-color="#5F2C82"/>
</linearGradient>
<linearGradient id="paint4_linear_158_2456" x1="-498.478" y1="975.726" x2="-514.73" y2="974.197" gradientUnits="userSpaceOnUse">
<stop stop-color="#233B55"/>
<stop offset="1" stop-color="#131D32"/>
</linearGradient>
<linearGradient id="paint5_linear_158_2456" x1="-511.723" y1="978.153" x2="-526.073" y2="961.402" gradientUnits="userSpaceOnUse">
<stop stop-color="#3E6896"/>
<stop offset="0.247" stop-color="#355881"/>
<stop offset="0.75" stop-color="#1F324E"/>
<stop offset="1" stop-color="#131D32"/>
</linearGradient>
<linearGradient id="paint6_linear_158_2456" x1="151.131" y1="360.612" x2="151.131" y2="346.739" gradientUnits="userSpaceOnUse">
<stop stop-color="#F55233"/>
<stop offset="1" stop-color="#A53826"/>
</linearGradient>
<linearGradient id="paint7_linear_158_2456" x1="151.768" y1="335.458" x2="151.768" y2="352.856" gradientUnits="userSpaceOnUse">
<stop stop-color="#FCC400"/>
<stop offset="0.162" stop-color="#FBC000"/>
<stop offset="0.307" stop-color="#FBB500"/>
<stop offset="0.446" stop-color="#FBA300"/>
<stop offset="0.581" stop-color="#FA8900"/>
<stop offset="0.712" stop-color="#FA6800"/>
<stop offset="0.842" stop-color="#F93F00"/>
<stop offset="0.967" stop-color="#F81000"/>
<stop offset="1" stop-color="#F80300"/>
</linearGradient>
<clipPath id="clip0_158_2456">
<rect width="33.8437" height="33.8437" fill="white" transform="translate(503.918 332.332)"/>
</clipPath>
<clipPath id="clip1_158_2456">
<rect width="94.5655" height="35.2106" fill="white" transform="translate(481.712 143.123)"/>
</clipPath>
</defs>
</svg>
